<?xml version="1.0" encoding="UTF-8"?>
<svg xmlns="http://www.w3.org/2000/svg" xmlns:xlink="http://www.w3.org/1999/xlink" width="145pt" height="34pt" viewBox="0 0 145 34" version="1.1">
<g id="surface1">
<path style=" stroke:none;fill-rule:nonzero;fill:rgb(100%,100%,100%);fill-opacity:1;" d="M 0 31.507812 C 0 31.355469 0 31.203125 0 31.054688 C 0 21.683594 0 12.316406 0 2.945312 C 0 2.492188 0 2.492188 0.449219 2.492188 C 9.765625 2.492188 19.082031 2.492188 28.472656 2.492188 C 28.925781 2.492188 28.925781 2.492188 28.925781 2.945312 C 28.925781 12.316406 28.925781 21.683594 28.925781 31.054688 C 28.925781 31.203125 28.925781 31.429688 28.925781 31.582031 C 19.234375 31.507812 9.617188 31.507812 0 31.507812 Z M 8.640625 9.59375 C 8.640625 9.671875 8.640625 9.671875 8.566406 9.746094 C 8.714844 9.972656 8.789062 10.199219 8.941406 10.503906 C 10.367188 13.148438 11.71875 15.792969 13.148438 18.4375 C 13.296875 18.738281 13.375 19.039062 13.375 19.34375 C 13.375 21.078125 13.375 22.816406 13.375 24.554688 C 13.375 24.859375 13.449219 24.933594 13.75 24.933594 C 14.199219 24.933594 14.648438 24.933594 15.101562 24.933594 C 15.402344 24.933594 15.476562 24.859375 15.476562 24.554688 C 15.476562 22.816406 15.476562 21.078125 15.476562 19.34375 C 15.476562 19.117188 15.550781 18.890625 15.625 18.664062 C 16.152344 17.605469 16.753906 16.546875 17.28125 15.488281 C 18.179688 13.75 19.082031 12.089844 19.984375 10.351562 C 20.058594 10.125 20.132812 9.898438 20.285156 9.671875 C 19.609375 9.671875 19.082031 9.671875 18.558594 9.59375 C 18.257812 9.59375 18.105469 9.671875 17.957031 9.972656 C 16.902344 12.089844 15.851562 14.128906 14.800781 16.246094 C 14.726562 16.394531 14.574219 16.621094 14.5 16.773438 C 14.351562 16.546875 14.273438 16.320312 14.199219 16.167969 C 13.222656 14.203125 12.246094 12.238281 11.34375 10.199219 C 11.121094 9.746094 10.894531 9.519531 10.367188 9.59375 C 10.21875 9.59375 10.140625 9.59375 9.992188 9.59375 C 9.542969 9.59375 9.089844 9.59375 8.640625 9.59375 Z M 8.640625 9.59375 "/>
<path style="fill-rule:nonzero;fill:rgb(100%,100%,100%);fill-opacity:1;stroke-width:1;stroke-linecap:butt;stroke-linejoin:miter;stroke:rgb(100%,100%,100%);stroke-opacity:1;stroke-miterlimit:10;" d="M 192.1993 17.500574 C 192.001724 18.002068 191.798949 18.400161 191.601374 18.901654 C 191.299811 19.599609 191.299811 19.599609 190.597899 19.599609 C 189.29806 19.599609 188.398572 20.297564 187.701859 21.300551 C 187.499084 21.600414 187.499084 22.101907 187.499084 22.5 C 187.499084 25.498621 187.400296 28.502413 187.400296 31.501034 C 187.400296 31.899127 187.301509 32.100758 186.802371 32.100758 C 186.40202 32.100758 186.00167 32.100758 185.60132 32.100758 C 185.20097 32.100758 185.102182 32.002528 185.102182 31.599265 C 185.102182 29.200368 185.102182 26.801471 185.102182 24.299173 C 185.102182 22.598231 185.102182 21.000689 184.998195 19.299747 C 184.998195 18.901654 184.899407 18.498392 184.80062 18.100299 C 184.80062 17.898667 184.899407 17.702206 185.102182 17.702206 C 185.502532 17.598805 186.00167 17.500574 186.40202 17.298943 C 186.698384 17.200712 186.802371 17.298943 186.901158 17.598805 C 186.999946 18.100299 187.098734 18.601792 187.197522 19.098116 C 187.197522 19.201517 187.197522 19.299747 187.301509 19.599609 C 187.597872 19.299747 187.800647 19.201517 187.998222 18.999885 C 188.601347 18.400161 189.29806 17.800437 190.197548 17.500574 C 190.800673 17.298943 191.502586 17.200712 192.1993 17.298943 C 192.1993 17.402344 192.1993 17.402344 192.1993 17.500574 Z M 192.1993 17.500574 " transform="matrix(0.751295,0,0,0.755556,0,0)"/>
<path style="fill-rule:nonzero;fill:rgb(100%,100%,100%);fill-opacity:1;stroke-width:1;stroke-linecap:butt;stroke-linejoin:miter;stroke:rgb(100%,100%,100%);stroke-opacity:1;stroke-miterlimit:10;" d="M 85.498168 19.299747 C 85.799731 19.098116 86.101293 18.901654 86.298869 18.700023 C 87.198357 18.002068 88.201832 17.500574 89.397683 17.298943 C 90.697522 17.102482 91.700997 17.702206 92.501697 18.601792 C 92.699273 18.798254 92.902047 19.098116 93.099623 19.501379 C 93.499973 19.201517 93.801536 18.999885 94.097899 18.798254 C 95.101374 18.002068 96.198437 17.500574 97.399488 17.298943 C 99.099677 16.999081 101.200216 18.400161 101.200216 20.400965 C 101.299003 24.200942 101.299003 27.897518 101.397791 31.697495 C 101.397791 32.002528 101.299003 32.198989 100.997441 32.100758 C 100.60229 32.100758 100.097953 32.100758 99.697602 32.100758 C 99.302452 32.100758 99.198464 32.002528 99.198464 31.599265 C 99.198464 28.998736 99.198464 26.398208 99.198464 23.797679 C 99.198464 23.001494 99.099677 22.101907 99.099677 21.300551 C 99.099677 19.599609 98.101401 18.999885 96.5 19.299747 C 95.600512 19.397978 95.002586 19.997702 94.300673 20.499196 C 93.198411 21.398782 93.198411 21.398782 93.198411 22.799862 C 93.198411 25.798483 93.198411 28.802275 93.198411 31.697495 C 93.198411 32.100758 93.099623 32.198989 92.699273 32.198989 C 92.298922 32.198989 91.898572 32.198989 91.498222 32.198989 C 91.097872 32.198989 90.999084 32.100758 90.999084 31.697495 C 90.999084 28.900506 90.999084 26.201746 90.999084 23.399586 C 90.999084 22.5 90.999084 21.698644 90.900296 20.799058 C 90.801509 19.69784 89.90202 19.201517 88.799758 19.299747 C 87.499919 19.501379 86.397656 20.297564 85.39938 21.202321 C 85.300593 21.300551 85.201805 21.600414 85.201805 21.900276 C 85.201805 25.100528 85.201805 28.399012 85.201805 31.599265 C 85.201805 32.198989 85.201805 32.198989 84.59868 32.198989 C 84.302317 32.198989 84.000754 32.198989 83.699192 32.198989 C 83.397629 32.198989 83.298842 32.100758 83.298842 31.800896 C 83.298842 30.498047 83.298842 29.102137 83.298842 27.799288 C 83.298842 25.30216 83.298842 22.799862 83.200054 20.400965 C 83.200054 19.69784 83.002478 18.999885 82.898491 18.30193 C 82.898491 18.002068 82.898491 17.898667 83.101266 17.898667 C 83.501616 17.800437 84.000754 17.702206 84.401105 17.598805 C 84.59868 17.500574 84.801455 17.598805 84.801455 17.898667 C 85.201805 18.198529 85.300593 18.700023 85.498168 19.299747 Z M 85.498168 19.299747 " transform="matrix(0.751295,0,0,0.755556,0,0)"/>
<path style="fill-rule:nonzero;fill:rgb(100%,100%,100%);fill-opacity:1;stroke-width:1;stroke-linecap:butt;stroke-linejoin:miter;stroke:rgb(100%,100%,100%);stroke-opacity:1;stroke-miterlimit:10;" d="M 108.500108 19.201517 C 108.900458 18.901654 109.20202 18.700023 109.498384 18.498392 C 111.099784 17.298943 112.898761 16.999081 114.801724 17.800437 C 116.20035 18.400161 117.099838 19.599609 117.598976 21.000689 C 118.602452 23.90108 118.498464 26.801471 117.099838 29.50023 C 116.397926 30.797909 115.39965 31.800896 113.798249 32.198989 C 112.09806 32.602252 110.501859 32.198989 109.20202 31.097771 C 108.999246 30.99954 108.900458 30.797909 108.598895 30.601448 C 108.500108 30.99954 108.40132 31.397633 108.302532 31.800896 C 108.198545 32.100758 108.099758 32.198989 107.798195 32.198989 C 107.299057 32.198989 106.701131 32.198989 106.201994 32.100758 C 106.701131 26.801471 106.399569 21.600414 106.399569 16.399357 C 106.399569 15.101677 106.300781 13.700597 106.300781 12.397748 C 106.300781 12.299517 106.300781 12.201287 106.300781 12.097886 C 106.201994 11.1983 106.098006 11.399931 106.997495 11.1983 C 107.101482 11.1983 107.299057 11.1983 107.397845 11.100069 C 108.302532 10.898438 108.40132 11.100069 108.500108 11.999655 C 108.598895 14.300322 108.598895 16.600988 108.697683 18.901654 C 108.500108 18.901654 108.500108 18.999885 108.500108 19.201517 Z M 108.500108 24.898897 C 108.500108 26.098346 108.500108 27.199563 108.500108 28.399012 C 108.500108 28.600643 108.598895 28.900506 108.697683 28.998736 C 109.898734 30.198185 111.401347 30.699678 113.101536 30.399816 C 114.401374 30.099954 115.098087 29.200368 115.39965 28.000919 C 115.8 26.801471 115.898788 25.498621 115.898788 24.200942 C 115.898788 23.197955 115.8 22.200138 115.39965 21.300551 C 114.9993 20.400965 114.302586 19.69784 113.200323 19.501379 C 111.500135 19.201517 109.997522 19.599609 108.80167 20.902459 C 108.598895 21.09892 108.40132 21.398782 108.500108 21.698644 C 108.500108 22.701631 108.500108 23.797679 108.500108 24.898897 Z M 108.500108 24.898897 " transform="matrix(0.751295,0,0,0.755556,0,0)"/>
<path style="fill-rule:nonzero;fill:rgb(100%,100%,100%);fill-opacity:1;stroke-width:1;stroke-linecap:butt;stroke-linejoin:miter;stroke:rgb(100%,100%,100%);stroke-opacity:1;stroke-miterlimit:10;" d="M 168.500647 24.800666 C 168.500647 23.197955 168.698222 21.698644 169.400135 20.400965 C 170.200835 18.901654 171.401886 17.702206 173.200862 17.402344 C 176.798815 16.797449 179.502478 18.498392 180.401967 22.101907 C 180.999892 24.402574 180.999892 26.801471 180.001616 28.998736 C 178.998141 31.299403 177.001589 32.498851 174.401913 32.40062 C 171.001536 32.30239 169.202559 30.001723 168.698222 27.297794 C 168.500647 26.501608 168.500647 25.602022 168.500647 24.800666 Z M 170.798761 24.402574 C 170.897548 25.400391 170.897548 26.398208 171.001536 27.401195 C 171.199111 29.401999 172.498949 30.498047 174.5007 30.601448 C 176.299677 30.699678 177.698303 29.701861 177.999865 27.897518 C 178.301428 26.201746 178.400216 24.500804 178.098653 22.799862 C 177.999865 22.101907 177.80229 21.300551 177.40194 20.597426 C 176.700027 19.397978 175.498976 18.798254 174.10035 18.901654 C 172.498949 18.999885 171.599461 19.599609 171.100323 21.09892 C 170.798761 22.200138 170.897548 23.301356 170.798761 24.402574 Z M 170.798761 24.402574 " transform="matrix(0.751295,0,0,0.755556,0,0)"/>
<path style="fill-rule:nonzero;fill:rgb(100%,100%,100%);fill-opacity:1;stroke-width:1;stroke-linecap:butt;stroke-linejoin:miter;stroke:rgb(100%,100%,100%);stroke-opacity:1;stroke-miterlimit:10;" d="M 78.900189 24.800666 C 78.900189 26.299977 78.801401 27.799288 78.099488 29.102137 C 76.898438 31.299403 75.099461 32.30239 72.598572 32.30239 C 69.499758 32.30239 67.097656 29.898323 66.801293 26.69807 C 66.598518 25.002298 66.499731 23.399586 66.998869 21.802045 C 67.601994 19.501379 69.00062 17.800437 71.298734 17.402344 C 74.797899 16.797449 77.298788 17.898667 78.598626 21.900276 C 78.697414 22.101907 78.697414 22.401769 78.801401 22.598231 C 78.801401 23.399586 78.900189 24.097541 78.900189 24.800666 Z M 76.602074 25.002298 C 76.3993 23.90108 76.3993 22.701631 76.097737 21.502183 C 75.702586 19.801241 74.298761 18.901654 72.598572 18.999885 C 70.898384 18.999885 69.598545 19.997702 69.198195 21.698644 C 68.699057 23.90108 68.797845 26.098346 69.40097 28.202551 C 69.598545 28.900506 69.900108 29.59846 70.60202 30.001723 C 72.302209 31.201172 75.499811 30.99954 76.300512 28.000919 C 76.498087 26.997932 76.498087 26.098346 76.602074 25.002298 Z M 76.602074 25.002298 " transform="matrix(0.751295,0,0,0.755556,0,0)"/>
<path style="fill-rule:nonzero;fill:rgb(100%,100%,100%);fill-opacity:1;stroke-width:1;stroke-linecap:butt;stroke-linejoin:miter;stroke:rgb(100%,100%,100%);stroke-opacity:1;stroke-miterlimit:10;" d="M 155.897414 31.097771 C 155.601051 31.501034 155.299488 31.800896 155.101913 32.198989 C 154.899138 32.498851 154.498788 32.498851 154.301212 32.30239 C 153.900862 31.899127 153.500512 31.501034 153.198949 30.99954 C 153.001374 30.699678 152.902586 30.699678 152.601024 30.90131 C 152.101886 31.299403 151.597548 31.697495 150.999623 32.002528 C 149.502209 32.700483 147.900808 32.700483 146.398195 32.100758 C 145.098357 31.599265 144.500431 30.498047 144.297656 29.102137 C 143.902505 26.398208 145.597495 24.599035 147.80202 23.90108 C 149.200647 23.399586 150.69806 23.301356 152.101886 23.301356 C 153.100162 23.301356 153.100162 23.301356 153.001374 22.298369 C 153.001374 21.900276 152.902586 21.600414 152.902586 21.202321 C 152.798599 19.501379 151.597548 18.999885 150.198922 19.098116 C 148.597522 19.201517 147.198895 19.801241 145.800269 20.700827 C 145.498707 20.297564 145.202344 19.899472 144.999569 19.501379 C 144.900781 19.397978 144.999569 19.098116 145.098357 18.999885 C 146.502182 18.198529 147.900808 17.500574 149.502209 17.402344 C 150.401697 17.298943 151.301185 17.298943 152.200673 17.500574 C 153.802074 17.800437 154.899138 19.299747 154.899138 20.902459 C 154.899138 23.399586 154.899138 25.798483 154.899138 28.300781 C 154.899138 28.802275 154.997926 29.200368 154.997926 29.701861 C 154.997926 30.301585 155.398276 30.699678 155.897414 31.097771 Z M 152.798599 26.201746 C 152.798599 25.798483 152.798599 25.400391 152.798599 25.002298 C 152.798599 24.800666 152.699811 24.599035 152.502236 24.599035 C 151.800323 24.599035 151.098411 24.599035 150.401697 24.599035 C 149.398222 24.702436 148.399946 24.898897 147.599246 25.498621 C 147.100108 25.901884 146.699758 26.299977 146.699758 26.899701 C 146.60097 27.499426 146.60097 28.000919 146.60097 28.600643 C 146.60097 29.59846 147.297683 30.399816 148.202371 30.601448 C 149.902559 30.99954 151.399973 30.301585 152.398249 28.998736 C 152.601024 28.802275 152.699811 28.399012 152.699811 28.09915 C 152.798599 27.597656 152.798599 26.899701 152.798599 26.201746 Z M 152.798599 26.201746 " transform="matrix(0.751295,0,0,0.755556,0,0)"/>
<path style="fill-rule:nonzero;fill:rgb(100%,100%,100%);fill-opacity:1;stroke-width:1;stroke-linecap:butt;stroke-linejoin:miter;stroke:rgb(100%,100%,100%);stroke-opacity:1;stroke-miterlimit:10;" d="M 63.702478 13.400735 C 63.302128 13.902229 63.000566 14.300322 62.699003 14.698415 C 62.00229 14.398552 61.300377 14.00046 60.598464 13.798828 C 57.400862 12.899242 54.702398 14.300322 53.600135 17.598805 C 53.298572 18.400161 53.199784 19.299747 53.100997 20.101103 C 53.002209 21.600414 52.898222 23.099724 53.100997 24.599035 C 53.298572 26.69807 54.19806 28.502413 56.101024 29.59846 C 57.9 30.699678 59.901751 30.699678 61.799515 29.800092 C 62.00229 29.701861 62.101078 29.701861 62.298653 29.59846 C 63.099353 29.200368 63.099353 29.200368 63.598491 29.898323 C 63.801266 30.099954 63.998842 30.399816 64.201616 30.699678 C 63.198141 31.299403 62.298653 31.697495 61.201589 31.899127 C 59.797764 32.198989 58.399138 32.30239 57.000512 32.002528 C 54.000485 31.299403 52.201509 29.298598 51.198033 26.398208 C 50.600108 24.599035 50.50132 22.799862 50.600108 21.000689 C 50.698895 18.901654 51.30202 16.90085 52.497872 15.199908 C 53.698922 13.400735 55.399111 12.201287 57.598438 11.901425 C 59.600189 11.601562 61.497953 11.901425 63.302128 12.997472 C 63.400916 13.199104 63.499704 13.302505 63.702478 13.400735 Z M 63.702478 13.400735 " transform="matrix(0.751295,0,0,0.755556,0,0)"/>
<path style="fill-rule:nonzero;fill:rgb(100%,100%,100%);fill-opacity:1;stroke-width:1;stroke-linecap:butt;stroke-linejoin:miter;stroke:rgb(100%,100%,100%);stroke-opacity:1;stroke-miterlimit:10;" d="M 131.699623 19.501379 C 132.001185 19.299747 132.198761 19.098116 132.500323 18.901654 C 133.399811 18.198529 134.398087 17.598805 135.599138 17.402344 C 137.398114 16.999081 139.597441 18.198529 139.997791 19.801241 C 140.200566 20.499196 140.200566 21.300551 140.200566 22.101907 C 140.299353 25.30216 140.299353 28.399012 140.299353 31.599265 C 140.299353 32.002528 140.200566 32.198989 139.800216 32.100758 C 139.399865 32.100758 139.098303 32.100758 138.697953 32.100758 C 138.100027 32.100758 138.100027 32.100758 138.100027 31.501034 C 138.100027 28.698874 138.100027 25.901884 138.001239 23.001494 C 138.001239 22.298369 138.001239 21.502183 137.902452 20.799058 C 137.902452 19.997702 137.200539 19.299747 136.399838 19.201517 C 135.697926 19.098116 135.001212 19.098116 134.398087 19.397978 C 133.498599 19.899472 132.697899 20.400965 131.902398 21.000689 C 131.798411 21.09892 131.699623 21.398782 131.699623 21.502183 C 131.699623 24.800666 131.699623 28.09915 131.699623 31.397633 C 131.699623 32.002528 131.699623 32.002528 131.101697 32.002528 C 130.898922 32.002528 130.602559 32.002528 130.399784 32.002528 C 129.999434 32.002528 129.900647 31.899127 129.900647 31.501034 C 129.900647 28.900506 129.900647 26.299977 129.801859 23.601218 C 129.801859 22.101907 129.697872 20.597426 129.599084 19.098116 C 129.599084 18.700023 129.401509 18.400161 129.401509 18.100299 C 129.401509 18.002068 129.500296 17.800437 129.599084 17.702206 C 129.999434 17.598805 130.498572 17.500574 130.898922 17.402344 C 131.200485 17.298943 131.39806 17.402344 131.502047 17.800437 C 131.39806 18.30193 131.600835 18.901654 131.699623 19.501379 Z M 131.699623 19.501379 " transform="matrix(0.751295,0,0,0.755556,0,0)"/>
<path style="fill-rule:nonzero;fill:rgb(100%,100%,100%);fill-opacity:1;stroke-width:1;stroke-linecap:butt;stroke-linejoin:miter;stroke:rgb(100%,100%,100%);stroke-opacity:1;stroke-miterlimit:10;" d="M 162.59938 13.498966 C 162.59938 14.300322 162.500593 14.998277 162.500593 15.701402 C 162.500593 16.301126 162.401805 16.797449 162.401805 17.402344 C 162.401805 17.702206 162.59938 17.702206 162.802155 17.702206 C 163.701643 17.702206 164.502344 17.702206 165.401832 17.702206 C 165.599407 17.702206 165.698195 17.702206 165.999758 17.702206 C 165.802182 18.198529 165.599407 18.601792 165.401832 19.098116 C 165.401832 19.201517 165.199057 19.201517 165.001482 19.201517 C 164.200781 19.201517 163.498869 19.201517 162.698168 19.201517 C 162.401805 19.201517 162.19903 19.299747 162.19903 19.69784 C 162.19903 22.701631 162.297818 25.798483 162.297818 28.802275 C 162.297818 29.102137 162.297818 29.50023 162.401805 29.800092 C 162.500593 30.399816 162.999731 30.90131 163.800431 30.90131 C 164.299569 30.90131 164.699919 30.90131 165.199057 30.797909 C 165.50062 30.797909 165.599407 30.90131 165.698195 31.097771 C 165.90097 31.899127 165.802182 32.100758 165.100269 32.198989 C 164.101994 32.40062 163.098518 32.498851 162.100242 32.198989 C 160.99798 31.899127 160.400054 31.097771 160.301266 30.001723 C 160.202478 26.599839 160.202478 23.301356 160.202478 19.899472 C 160.202478 19.201517 160.202478 19.201517 159.500566 19.201517 C 159.401778 19.201517 159.199003 19.201517 159.100216 19.201517 C 158.798653 19.201517 158.299515 19.201517 158.299515 19.098116 C 158.200727 18.700023 158.200727 18.30193 158.299515 17.800437 C 158.299515 17.702206 158.50229 17.702206 158.601078 17.702206 C 159.001428 17.702206 159.297791 17.702206 159.698141 17.702206 C 159.999704 17.702206 160.098491 17.598805 160.202478 17.298943 C 160.301266 16.399357 160.400054 15.40154 160.400054 14.501953 C 160.400054 14.09869 160.597629 14.00046 160.899192 13.902229 C 161.502317 13.700597 162.001455 13.602367 162.59938 13.498966 Z M 162.59938 13.498966 " transform="matrix(0.751295,0,0,0.755556,0,0)"/>
<path style="fill-rule:nonzero;fill:rgb(100%,100%,100%);fill-opacity:1;stroke-width:1;stroke-linecap:butt;stroke-linejoin:miter;stroke:rgb(100%,100%,100%);stroke-opacity:1;stroke-miterlimit:10;" d="M 124.498518 17.298943 C 124.498518 17.500574 124.498518 17.598805 124.498518 17.702206 C 124.498518 22.298369 124.498518 26.899701 124.498518 31.501034 C 124.498518 31.899127 124.399731 32.100758 123.99938 32.002528 C 123.59903 32.002528 123.19868 32.002528 122.79833 32.002528 C 122.501967 32.002528 122.39798 31.899127 122.39798 31.599265 C 122.39798 29.50023 122.39798 27.401195 122.39798 25.30216 C 122.39798 22.898093 122.39798 20.597426 122.39798 18.198529 C 122.39798 17.800437 122.501967 17.598805 123.001105 17.500574 C 123.401455 17.598805 123.900593 17.402344 124.498518 17.298943 Z M 124.498518 17.298943 " transform="matrix(0.751295,0,0,0.755556,0,0)"/>
<path style="fill-rule:nonzero;fill:rgb(100%,100%,100%);fill-opacity:1;stroke-width:1;stroke-linecap:butt;stroke-linejoin:miter;stroke:rgb(100%,100%,100%);stroke-opacity:1;stroke-miterlimit:10;" d="M 123.401455 11.399931 C 124.300943 11.399931 125.101643 12.097886 125.101643 12.997472 C 125.101643 13.902229 124.300943 14.698415 123.500242 14.698415 C 122.600754 14.698415 121.800054 14.00046 121.800054 13.100873 C 121.800054 12.201287 122.501967 11.399931 123.401455 11.399931 Z M 123.401455 11.399931 " transform="matrix(0.751295,0,0,0.755556,0,0)"/>
</g>
</svg>
