<?xml version="1.0" encoding="utf-8"?>
<!-- Generator: Adobe Illustrator 24.0.2, SVG Export Plug-In . SVG Version: 6.00 Build 0)  -->
<svg version="1.1" id="Layer_1" xmlns="http://www.w3.org/2000/svg" xmlns:xlink="http://www.w3.org/1999/xlink" x="0px" y="0px"
	 viewBox="0 0 193 45" style="enable-background:new 0 0 193 45;" xml:space="preserve">
<style type="text/css">
	.st0{fill:#FFFFFF;}
	.st1{fill:#FFFFFF;stroke:#FFFFFF;stroke-miterlimit:10;}
</style>
<g id="_x32_fENBq.tif">
	<g>
		<path class="st0" d="M0,41.7c0-0.2,0-0.4,0-0.6C0,28.7,0,16.3,0,3.9c0-0.6,0-0.6,0.6-0.6c12.4,0,24.8,0,37.3,0
			c0.6,0,0.6,0,0.6,0.6c0,12.4,0,24.8,0,37.2c0,0.2,0,0.5,0,0.7C25.6,41.7,12.8,41.7,0,41.7z M11.5,12.7c0,0.1,0,0.1-0.1,0.2
			c0.2,0.3,0.3,0.6,0.5,1c1.9,3.5,3.7,7,5.6,10.5c0.2,0.4,0.3,0.8,0.3,1.2c0,2.3,0,4.6,0,6.9c0,0.4,0.1,0.5,0.5,0.5
			c0.6,0,1.2,0,1.8,0c0.4,0,0.5-0.1,0.5-0.5c0-2.3,0-4.6,0-6.9c0-0.3,0.1-0.6,0.2-0.9c0.7-1.4,1.5-2.8,2.2-4.2
			c1.2-2.3,2.4-4.5,3.6-6.8c0.1-0.3,0.2-0.6,0.4-0.9c-0.9,0-1.6,0-2.3-0.1c-0.4,0-0.6,0.1-0.8,0.5c-1.4,2.8-2.8,5.5-4.2,8.3
			c-0.1,0.2-0.3,0.5-0.4,0.7c-0.2-0.3-0.3-0.6-0.4-0.8c-1.3-2.6-2.6-5.2-3.8-7.9c-0.3-0.6-0.6-0.9-1.3-0.8c-0.2,0-0.3,0-0.5,0
			C12.7,12.7,12.1,12.7,11.5,12.7z"/>
		<path class="st1" d="M192.2,17.5c-0.2,0.5-0.4,0.9-0.6,1.4c-0.3,0.7-0.3,0.7-1,0.7c-1.3,0-2.2,0.7-2.9,1.7
			c-0.2,0.3-0.2,0.8-0.2,1.2c0,3-0.1,6-0.1,9c0,0.4-0.1,0.6-0.6,0.6c-0.4,0-0.8,0-1.2,0s-0.5-0.1-0.5-0.5c0-2.4,0-4.8,0-7.3
			c0-1.7,0-3.3-0.1-5c0-0.4-0.1-0.8-0.2-1.2c0-0.2,0.1-0.4,0.3-0.4c0.4-0.1,0.9-0.2,1.3-0.4c0.3-0.1,0.4,0,0.5,0.3
			c0.1,0.5,0.2,1,0.3,1.5c0,0.1,0,0.2,0.1,0.5c0.3-0.3,0.5-0.4,0.7-0.6c0.6-0.6,1.3-1.2,2.2-1.5c0.6-0.2,1.3-0.3,2-0.2
			C192.2,17.4,192.2,17.4,192.2,17.5z"/>
		<path class="st1" d="M85.5,19.3c0.3-0.2,0.6-0.4,0.8-0.6c0.9-0.7,1.9-1.2,3.1-1.4c1.3-0.2,2.3,0.4,3.1,1.3
			c0.2,0.2,0.4,0.5,0.6,0.9c0.4-0.3,0.7-0.5,1-0.7c1-0.8,2.1-1.3,3.3-1.5c1.7-0.3,3.8,1.1,3.8,3.1c0.1,3.8,0.1,7.5,0.2,11.3
			c0,0.3-0.1,0.5-0.4,0.4c-0.4,0-0.9,0-1.3,0s-0.5-0.1-0.5-0.5c0-2.6,0-5.2,0-7.8c0-0.8-0.1-1.7-0.1-2.5c0-1.7-1-2.3-2.6-2
			c-0.9,0.1-1.5,0.7-2.2,1.2c-1.1,0.9-1.1,0.9-1.1,2.3c0,3,0,6,0,8.9c0,0.4-0.1,0.5-0.5,0.5s-0.8,0-1.2,0c-0.4,0-0.5-0.1-0.5-0.5
			c0-2.8,0-5.5,0-8.3c0-0.9,0-1.7-0.1-2.6c-0.1-1.1-1-1.6-2.1-1.5c-1.3,0.2-2.4,1-3.4,1.9c-0.1,0.1-0.2,0.4-0.2,0.7
			c0,3.2,0,6.5,0,9.7c0,0.6,0,0.6-0.6,0.6c-0.3,0-0.6,0-0.9,0s-0.4-0.1-0.4-0.4c0-1.3,0-2.7,0-4c0-2.5,0-5-0.1-7.4
			c0-0.7-0.2-1.4-0.3-2.1c0-0.3,0-0.4,0.2-0.4c0.4-0.1,0.9-0.2,1.3-0.3c0.2-0.1,0.4,0,0.4,0.3C85.2,18.2,85.3,18.7,85.5,19.3z"/>
		<path class="st1" d="M108.5,19.2c0.4-0.3,0.7-0.5,1-0.7c1.6-1.2,3.4-1.5,5.3-0.7c1.4,0.6,2.3,1.8,2.8,3.2c1,2.9,0.9,5.8-0.5,8.5
			c-0.7,1.3-1.7,2.3-3.3,2.7c-1.7,0.4-3.3,0-4.6-1.1c-0.2-0.1-0.3-0.3-0.6-0.5c-0.1,0.4-0.2,0.8-0.3,1.2c-0.1,0.3-0.2,0.4-0.5,0.4
			c-0.5,0-1.1,0-1.6-0.1c0.5-5.3,0.2-10.5,0.2-15.7c0-1.3-0.1-2.7-0.1-4c0-0.1,0-0.2,0-0.3c-0.1-0.9-0.2-0.7,0.7-0.9
			c0.1,0,0.3,0,0.4-0.1c0.9-0.2,1,0,1.1,0.9c0.1,2.3,0.1,4.6,0.2,6.9C108.5,18.9,108.5,19,108.5,19.2z M108.5,24.9
			c0,1.2,0,2.3,0,3.5c0,0.2,0.1,0.5,0.2,0.6c1.2,1.2,2.7,1.7,4.4,1.4c1.3-0.3,2-1.2,2.3-2.4c0.4-1.2,0.5-2.5,0.5-3.8
			c0-1-0.1-2-0.5-2.9s-1.1-1.6-2.2-1.8c-1.7-0.3-3.2,0.1-4.4,1.4c-0.2,0.2-0.4,0.5-0.3,0.8C108.5,22.7,108.5,23.8,108.5,24.9z"/>
		<path class="st1" d="M168.5,24.8c0-1.6,0.2-3.1,0.9-4.4c0.8-1.5,2-2.7,3.8-3c3.6-0.6,6.3,1.1,7.2,4.7c0.6,2.3,0.6,4.7-0.4,6.9
			c-1,2.3-3,3.5-5.6,3.4c-3.4-0.1-5.2-2.4-5.7-5.1C168.5,26.5,168.5,25.6,168.5,24.8z M170.8,24.4c0.1,1,0.1,2,0.2,3
			c0.2,2,1.5,3.1,3.5,3.2c1.8,0.1,3.2-0.9,3.5-2.7c0.3-1.7,0.4-3.4,0.1-5.1c-0.1-0.7-0.3-1.5-0.7-2.2c-0.7-1.2-1.9-1.8-3.3-1.7
			c-1.6,0.1-2.5,0.7-3,2.2C170.8,22.2,170.9,23.3,170.8,24.4z"/>
		<path class="st1" d="M78.9,24.8c0,1.5-0.1,3-0.8,4.3c-1.2,2.2-3,3.2-5.5,3.2c-3.1,0-5.5-2.4-5.8-5.6c-0.2-1.7-0.3-3.3,0.2-4.9
			c0.6-2.3,2-4,4.3-4.4c3.5-0.6,6,0.5,7.3,4.5c0.1,0.2,0.1,0.5,0.2,0.7C78.8,23.4,78.9,24.1,78.9,24.8z M76.6,25
			c-0.2-1.1-0.2-2.3-0.5-3.5c-0.4-1.7-1.8-2.6-3.5-2.5c-1.7,0-3,1-3.4,2.7c-0.5,2.2-0.4,4.4,0.2,6.5c0.2,0.7,0.5,1.4,1.2,1.8
			c1.7,1.2,4.9,1,5.7-2C76.5,27,76.5,26.1,76.6,25z"/>
		<path class="st1" d="M155.9,31.1c-0.3,0.4-0.6,0.7-0.8,1.1c-0.2,0.3-0.6,0.3-0.8,0.1c-0.4-0.4-0.8-0.8-1.1-1.3
			c-0.2-0.3-0.3-0.3-0.6-0.1c-0.5,0.4-1,0.8-1.6,1.1c-1.5,0.7-3.1,0.7-4.6,0.1c-1.3-0.5-1.9-1.6-2.1-3c-0.4-2.7,1.3-4.5,3.5-5.2
			c1.4-0.5,2.9-0.6,4.3-0.6c1,0,1,0,0.9-1c0-0.4-0.1-0.7-0.1-1.1c-0.1-1.7-1.3-2.2-2.7-2.1c-1.6,0.1-3,0.7-4.4,1.6
			c-0.3-0.4-0.6-0.8-0.8-1.2c-0.1-0.1,0-0.4,0.1-0.5c1.4-0.8,2.8-1.5,4.4-1.6c0.9-0.1,1.8-0.1,2.7,0.1c1.6,0.3,2.7,1.8,2.7,3.4
			c0,2.5,0,4.9,0,7.4c0,0.5,0.1,0.9,0.1,1.4C155,30.3,155.4,30.7,155.9,31.1z M152.8,26.2L152.8,26.2c0-0.4,0-0.8,0-1.2
			c0-0.2-0.1-0.4-0.3-0.4c-0.7,0-1.4,0-2.1,0c-1,0.1-2,0.3-2.8,0.9c-0.5,0.4-0.9,0.8-0.9,1.4c-0.1,0.6-0.1,1.1-0.1,1.7
			c0,1,0.7,1.8,1.6,2c1.7,0.4,3.2-0.3,4.2-1.6c0.2-0.2,0.3-0.6,0.3-0.9C152.8,27.6,152.8,26.9,152.8,26.2z"/>
		<path class="st1" d="M63.7,13.4c-0.4,0.5-0.7,0.9-1,1.3c-0.7-0.3-1.4-0.7-2.1-0.9c-3.2-0.9-5.9,0.5-7,3.8
			c-0.3,0.8-0.4,1.7-0.5,2.5c-0.1,1.5-0.2,3,0,4.5c0.2,2.1,1.1,3.9,3,5c1.8,1.1,3.8,1.1,5.7,0.2c0.2-0.1,0.3-0.1,0.5-0.2
			c0.8-0.4,0.8-0.4,1.3,0.3c0.2,0.2,0.4,0.5,0.6,0.8c-1,0.6-1.9,1-3,1.2c-1.4,0.3-2.8,0.4-4.2,0.1c-3-0.7-4.8-2.7-5.8-5.6
			c-0.6-1.8-0.7-3.6-0.6-5.4c0.1-2.1,0.7-4.1,1.9-5.8c1.2-1.8,2.9-3,5.1-3.3c2-0.3,3.9,0,5.7,1.1C63.4,13.2,63.5,13.3,63.7,13.4z"/>
		<path class="st1" d="M131.7,19.5c0.3-0.2,0.5-0.4,0.8-0.6c0.9-0.7,1.9-1.3,3.1-1.5c1.8-0.4,4,0.8,4.4,2.4c0.2,0.7,0.2,1.5,0.2,2.3
			c0.1,3.2,0.1,6.3,0.1,9.5c0,0.4-0.1,0.6-0.5,0.5c-0.4,0-0.7,0-1.1,0c-0.6,0-0.6,0-0.6-0.6c0-2.8,0-5.6-0.1-8.5
			c0-0.7,0-1.5-0.1-2.2c0-0.8-0.7-1.5-1.5-1.6c-0.7-0.1-1.4-0.1-2,0.2c-0.9,0.5-1.7,1-2.5,1.6c-0.1,0.1-0.2,0.4-0.2,0.5
			c0,3.3,0,6.6,0,9.9c0,0.6,0,0.6-0.6,0.6c-0.2,0-0.5,0-0.7,0c-0.4,0-0.5-0.1-0.5-0.5c0-2.6,0-5.2-0.1-7.9c0-1.5-0.1-3-0.2-4.5
			c0-0.4-0.2-0.7-0.2-1c0-0.1,0.1-0.3,0.2-0.4c0.4-0.1,0.9-0.2,1.3-0.3c0.3-0.1,0.5,0,0.6,0.4C131.4,18.3,131.6,18.9,131.7,19.5z"/>
		<path class="st1" d="M162.6,13.5c0,0.8-0.1,1.5-0.1,2.2c0,0.6-0.1,1.1-0.1,1.7c0,0.3,0.2,0.3,0.4,0.3c0.9,0,1.7,0,2.6,0
			c0.2,0,0.3,0,0.6,0c-0.2,0.5-0.4,0.9-0.6,1.4c0,0.1-0.2,0.1-0.4,0.1c-0.8,0-1.5,0-2.3,0c-0.3,0-0.5,0.1-0.5,0.5
			c0,3,0.1,6.1,0.1,9.1c0,0.3,0,0.7,0.1,1c0.1,0.6,0.6,1.1,1.4,1.1c0.5,0,0.9,0,1.4-0.1c0.3,0,0.4,0.1,0.5,0.3
			c0.2,0.8,0.1,1-0.6,1.1c-1,0.2-2,0.3-3,0c-1.1-0.3-1.7-1.1-1.8-2.2c-0.1-3.4-0.1-6.7-0.1-10.1c0-0.7,0-0.7-0.7-0.7
			c-0.1,0-0.3,0-0.4,0c-0.3,0-0.8,0-0.8-0.1c-0.1-0.4-0.1-0.8,0-1.3c0-0.1,0.2-0.1,0.3-0.1c0.4,0,0.7,0,1.1,0c0.3,0,0.4-0.1,0.5-0.4
			c0.1-0.9,0.2-1.9,0.2-2.8c0-0.4,0.2-0.5,0.5-0.6C161.5,13.7,162,13.6,162.6,13.5z"/>
		<path class="st1" d="M124.5,17.3c0,0.2,0,0.3,0,0.4c0,4.6,0,9.2,0,13.8c0,0.4-0.1,0.6-0.5,0.5c-0.4,0-0.8,0-1.2,0
			c-0.3,0-0.4-0.1-0.4-0.4c0-2.1,0-4.2,0-6.3c0-2.4,0-4.7,0-7.1c0-0.4,0.1-0.6,0.6-0.7C123.4,17.6,123.9,17.4,124.5,17.3z"/>
		<path class="st1" d="M123.4,11.4c0.9,0,1.7,0.7,1.7,1.6c0,0.9-0.8,1.7-1.6,1.7c-0.9,0-1.7-0.7-1.7-1.6
			C121.8,12.2,122.5,11.4,123.4,11.4z"/>
	</g>
</g>
</svg>
