<?xml version="1.0" encoding="utf-8"?>
<!-- Generator: Adobe Illustrator 24.0.2, SVG Export Plug-In . SVG Version: 6.00 Build 0)  -->
<svg version="1.1" id="Layer_1" xmlns="http://www.w3.org/2000/svg" xmlns:xlink="http://www.w3.org/1999/xlink" x="0px" y="0px"
	 viewBox="0 0 193 45" style="enable-background:new 0 0 193 45;" xml:space="preserve">
<style type="text/css">
	.st0{fill:#FFFFFF;}
</style>
<g id="_x32_E6ntc.tif">
	<g>
		<path class="st0" d="M31.8,38.3c-10.6,0-21.1,0-31.8,0c0-10.5,0-21,0-31.6c10.6,0,21.1,0,31.8,0C31.8,17.2,31.8,27.7,31.8,38.3z
			 M13.6,15.7c0,4.6,0,9.1,0,13.6c1,0,2,0,3.1,0c0-1.7,0-3.4,0-5.2c1.7,0,3.2,0,4.8,0c0,1.8,0,3.5,0,5.2c1.1,0,2.1,0,3.1,0
			c0-4.5,0-9,0-13.6c-1,0-2,0-3.1,0c0,1.7,0,3.4,0,5.1c-1.6,0-3.2,0-4.8,0c0-1.8,0-3.4,0-5.2C15.6,15.7,14.6,15.7,13.6,15.7z
			 M10.2,15.7c-1,0-2,0-3,0c0,4.5,0,9,0,13.5c1.1,0,2,0,3,0C10.2,24.7,10.2,20.2,10.2,15.7z"/>
		<path class="st0" d="M58.1,29.5c-0.9,0-1.9,0-2.9,0c0-4.7,0-9.3,0-14.1c1,0,2-0.1,3,0c0.3,0,0.6,0.4,0.7,0.7
			c1.4,2.7,2.8,5.4,4.2,8.1c0.1,0.2,0.2,0.4,0.3,0.6c0-3.2,0-6.3,0-9.4c0.9,0,1.9,0,2.9,0c0,4.7,0,9.3,0,14.1c-1,0-1.9,0.1-2.8,0
			c-0.3,0-0.7-0.4-0.8-0.7c-1.4-2.7-2.8-5.4-4.1-8c-0.1-0.2-0.2-0.4-0.4-0.7C58.1,23.3,58.1,26.4,58.1,29.5z"/>
		<path class="st0" d="M178.5,24c1,1.8,2,3.6,3.2,5.6c-1.2,0-2.3,0-3.3,0c-0.2,0-0.5-0.3-0.7-0.6c-0.6-1.1-1.3-2.2-1.8-3.3
			c-0.4-1-1.1-1.4-2.3-1c0,1.6,0,3.2,0,4.9c-1.1,0-2.1,0-3.2,0c0-4.7,0-9.3,0-14.2c2.5,0.1,4.9,0.1,7.4,0.4c1.7,0.2,2.8,1.4,3.1,3.2
			s-0.1,3.4-1.7,4.6C179,23.6,178.8,23.8,178.5,24z M173.7,21.8c0.9,0,1.7,0.1,2.5,0c1-0.1,1.6-1,1.5-2.1c-0.1-1-0.8-1.5-1.7-1.5
			c-0.8-0.1-1.5,0-2.4,0C173.7,19.4,173.7,20.5,173.7,21.8z"/>
		<path class="st0" d="M69.5,29.7c0-1.4,0-2.5,0-3.6c0-3.2,0-6.5,0-9.7c0-0.5-0.1-1,0.7-1c1.8,0.1,3.5,0,5.3,0.2
			c2.7,0.4,4.5,1.9,4.9,4.6c0.2,1.6,0.2,3.2-0.1,4.8c-0.5,2.4-2.1,3.9-4.5,4.3C73.8,29.6,71.7,29.5,69.5,29.7z M72.9,18.1
			c0,2.9,0,5.8,0,8.7c2.8,0.2,4.2-1,4.4-3.7c0-0.4,0-0.9,0-1.3C77,19.1,75.7,18,72.9,18.1z"/>
		<path class="st0" d="M117.2,15.5c0,4.7,0,9.3,0,14c-1.1,0-2.1,0-3.2,0c0-1.9,0-3.8,0-5.7c-1.6,0-3.1,0-4.8,0c0,1.9,0,3.8,0,5.7
			c-1.1,0-2.1,0-3.2,0c0-4.7,0-9.3,0-14c1,0,2,0,3.1,0c0,1.5,0,2.9,0,4.4c0,0.8,0.2,1,1,1c1.2-0.1,2.4,0,3.8,0c0-1.8,0-3.6,0-5.4
			C115.1,15.5,116.1,15.5,117.2,15.5z"/>
		<path class="st0" d="M148.5,15.5c0,1.8,0,3.6,0,5.6c1.2-1.7,2.3-3.1,3.3-4.6c0.6-0.9,1.3-1.3,2.3-1.2c0.6,0.1,1.2,0,2.1,0
			c-1.3,1.7-2.4,3.2-3.6,4.6c-0.7,0.8-0.6,1.3-0.1,2.2c1.3,2,2.5,4.1,3.7,6.2c0.2,0.3,0.3,0.6,0.6,1.1c-1.1,0-2.1,0.1-3.1,0
			c-0.3,0-0.6-0.4-0.8-0.7c-1-1.6-1.9-3.3-2.9-4.9c-2.3,1.4-1.6,3.6-1.7,5.6c-1.1,0-2.1,0-3.2,0c0-4.6,0-9.3,0-13.9
			C146.4,15.5,147.4,15.5,148.5,15.5z"/>
		<path class="st0" d="M131.3,29.5c-0.3,0-0.4,0.1-0.6,0.1c-2.7,0.1-2.7,0.1-3.5-2.5c-0.2-0.6-0.4-0.9-1-0.8c-1.1,0.1-2.2,0-3.4,0
			c-0.2,0.9-0.5,1.7-0.7,2.5c-0.1,0.6-0.4,0.9-1,0.8c-0.8,0-1.5,0-2.4,0c0.1-0.5,0.2-0.8,0.3-1.2c1.3-4,2.5-8,3.8-12.1
			c0.2-0.6,0.5-0.9,1.2-0.9c3,0,3,0,3.8,2.7c1,3.3,2.1,6.6,3.1,10C131.1,28.5,131.2,28.9,131.3,29.5z M126.4,23.6
			c-0.5-1.8-0.9-3.5-1.3-5.2c-0.1,0-0.1,0-0.2,0c-0.4,1.7-0.8,3.4-1.3,5.2C124.6,23.6,125.4,23.6,126.4,23.6z"/>
		<path class="st0" d="M161.8,26.8c2,0,3.8,0,5.7,0c0,0.9,0,1.7,0,2.6c-3,0-5.9,0-9,0c0-4.7,0-9.3,0-14c2.9,0,5.8,0,8.8,0
			c0,0.9,0,1.7,0,2.6c-1.8,0-3.6,0-5.5,0c0,1,0,1.8,0,2.7c1.5,0,3,0,4.7,0c0,1,0,1.8,0,2.7c-1.6,0-3.1,0-4.7,0
			C161.8,24.7,161.8,25.7,161.8,26.8z"/>
		<path class="st0" d="M98.6,15.5c0,0.9,0,1.7,0,2.6c-1.9,0-3.7,0-5.6,0c0,1,0,1.8,0,2.8c1.5,0,3.1,0,4.7,0c0,0.9,0,1.8,0,2.7
			c-1.5,0-3.1,0-4.7,0c0,1.1,0,2.1,0,3.2c1.9,0,3.8,0,5.7,0c0,1,0,1.8,0,2.7c-3,0-6,0-9,0c0-4.7,0-9.3,0-14
			C92.7,15.5,95.6,15.5,98.6,15.5z"/>
		<path class="st0" d="M192.5,17.1c-0.5,0.6-1,1.2-1.6,1.9c-0.3-0.2-0.6-0.4-1-0.5c-0.9-0.2-1.8-0.4-2.7-0.4c-0.4,0-0.9,0.5-1,0.9
			c-0.1,0.3,0.3,0.9,0.6,1.1c0.9,0.5,1.9,0.8,2.8,1.2c2.4,1,3.4,2.3,3.2,4.4c-0.2,1.9-1.8,3.4-4.1,3.9c-2.2,0.4-4.8-0.4-6.5-2
			c0.6-0.7,1.2-1.4,1.5-1.8c1.6,0.4,2.9,0.8,4.2,1c0.7,0.1,1.5-0.2,1.4-1c0-0.5-0.5-1.1-1-1.4c-0.8-0.5-1.7-0.8-2.6-1.2
			c-2.2-0.9-3.2-2.4-3-4.4c0.2-1.8,1.7-3.3,3.9-3.7C188.9,14.9,191.2,15.6,192.5,17.1z"/>
		<path class="st0" d="M141.3,19.1c-0.4-0.3-0.7-0.4-1-0.6c-1.4-0.8-3.2-0.5-4.1,0.9c-1.2,1.7-1.2,4.7,0,6.5
			c0.9,1.2,2.7,1.5,4.1,0.7c0.4-0.2,0.7-0.5,1.2-0.8c0.5,0.6,1.1,1.3,1.6,1.9c-2.4,3.3-8,2.7-10.1-0.9c-1.6-2.7-1.2-6.9,0.8-9.3
			c2.3-2.7,6.5-2.9,9.1-0.3C142.4,17.7,141.9,18.3,141.3,19.1z"/>
		<path class="st0" d="M86.4,29.5c-1.1,0-2.1,0-3.1,0c0-4.7,0-9.3,0-14c1.1,0,2,0,3.1,0C86.4,20.1,86.4,24.8,86.4,29.5z"/>
		<path class="st0" d="M51.8,15.5c0,4.7,0,9.3,0,14c-1.1,0-2.1,0-3.1,0c0-4.7,0-9.3,0-14C49.7,15.5,50.7,15.5,51.8,15.5z"/>
	</g>
</g>
</svg>
