<?xml version="1.0" encoding="UTF-8"?>
<svg xmlns="http://www.w3.org/2000/svg" xmlns:xlink="http://www.w3.org/1999/xlink" width="145pt" height="34pt" viewBox="0 0 145 34" version="1.1">
<g id="surface1">
<path style=" stroke:none;fill-rule:nonzero;fill:rgb(100%,100%,100%);fill-opacity:1;" d="M 23.890625 28.9375 C 15.925781 28.9375 8.039062 28.9375 0 28.9375 C 0 21.003906 0 13.070312 0 5.0625 C 7.964844 5.0625 15.851562 5.0625 23.890625 5.0625 C 23.890625 12.996094 23.890625 20.929688 23.890625 28.9375 Z M 10.21875 11.863281 C 10.21875 15.335938 10.21875 18.738281 10.21875 22.136719 C 10.96875 22.136719 11.71875 22.136719 12.546875 22.136719 C 12.546875 20.851562 12.546875 19.570312 12.546875 18.207031 C 13.824219 18.207031 14.949219 18.207031 16.152344 18.207031 C 16.152344 19.570312 16.152344 20.851562 16.152344 22.136719 C 16.980469 22.136719 17.730469 22.136719 18.480469 22.136719 C 18.480469 18.738281 18.480469 15.335938 18.480469 11.863281 C 17.730469 11.863281 16.980469 11.863281 16.152344 11.863281 C 16.152344 13.148438 16.152344 14.429688 16.152344 15.714844 C 14.949219 15.714844 13.75 15.714844 12.546875 15.714844 C 12.546875 14.355469 12.546875 13.148438 12.546875 11.785156 C 11.71875 11.863281 10.96875 11.863281 10.21875 11.863281 Z M 7.664062 11.863281 C 6.910156 11.863281 6.160156 11.863281 5.410156 11.863281 C 5.410156 15.261719 5.410156 18.664062 5.410156 22.0625 C 6.234375 22.0625 6.910156 22.0625 7.664062 22.0625 C 7.664062 18.664062 7.664062 15.261719 7.664062 11.863281 Z M 7.664062 11.863281 "/>
<path style=" stroke:none;fill-rule:nonzero;fill:rgb(100%,100%,100%);fill-opacity:1;" d="M 43.648438 22.289062 C 42.972656 22.289062 42.222656 22.289062 41.472656 22.289062 C 41.472656 18.738281 41.472656 15.261719 41.472656 11.636719 C 42.222656 11.636719 42.972656 11.558594 43.726562 11.636719 C 43.949219 11.636719 44.175781 11.9375 44.25 12.164062 C 45.304688 14.203125 46.355469 16.246094 47.40625 18.285156 C 47.480469 18.4375 47.558594 18.585938 47.632812 18.738281 C 47.632812 16.320312 47.632812 13.976562 47.632812 11.636719 C 48.308594 11.636719 49.058594 11.636719 49.8125 11.636719 C 49.8125 15.1875 49.8125 18.664062 49.8125 22.289062 C 49.058594 22.289062 48.382812 22.363281 47.707031 22.289062 C 47.480469 22.289062 47.179688 21.988281 47.105469 21.761719 C 46.054688 19.71875 45.003906 17.679688 44.027344 15.714844 C 43.949219 15.5625 43.875 15.414062 43.726562 15.1875 C 43.648438 17.605469 43.648438 19.945312 43.648438 22.289062 Z M 43.648438 22.289062 "/>
<path style=" stroke:none;fill-rule:nonzero;fill:rgb(100%,100%,100%);fill-opacity:1;" d="M 134.105469 18.132812 C 134.859375 19.492188 135.609375 20.851562 136.511719 22.363281 C 135.609375 22.363281 134.78125 22.363281 134.03125 22.363281 C 133.878906 22.363281 133.65625 22.136719 133.503906 21.910156 C 133.054688 21.078125 132.527344 20.25 132.152344 19.417969 C 131.851562 18.664062 131.328125 18.359375 130.425781 18.664062 C 130.425781 19.871094 130.425781 21.078125 130.425781 22.363281 C 129.597656 22.363281 128.847656 22.363281 128.019531 22.363281 C 128.019531 18.8125 128.019531 15.335938 128.019531 11.636719 C 129.898438 11.710938 131.703125 11.710938 133.582031 11.9375 C 134.859375 12.089844 135.683594 12.996094 135.910156 14.355469 C 136.132812 15.714844 135.835938 16.925781 134.632812 17.832031 C 134.480469 17.832031 134.332031 17.980469 134.105469 18.132812 Z M 130.5 16.472656 C 131.175781 16.472656 131.777344 16.546875 132.378906 16.472656 C 133.128906 16.394531 133.582031 15.714844 133.503906 14.882812 C 133.429688 14.128906 132.902344 13.75 132.226562 13.75 C 131.625 13.675781 131.101562 13.75 130.425781 13.75 C 130.5 14.65625 130.5 15.488281 130.5 16.472656 Z M 130.5 16.472656 "/>
<path style=" stroke:none;fill-rule:nonzero;fill:rgb(100%,100%,100%);fill-opacity:1;" d="M 52.214844 22.441406 C 52.214844 21.382812 52.214844 20.550781 52.214844 19.71875 C 52.214844 17.300781 52.214844 14.808594 52.214844 12.390625 C 52.214844 12.011719 52.140625 11.636719 52.742188 11.636719 C 54.09375 11.710938 55.371094 11.636719 56.722656 11.785156 C 58.75 12.089844 60.105469 13.222656 60.402344 15.261719 C 60.554688 16.472656 60.554688 17.679688 60.328125 18.890625 C 59.953125 20.703125 58.75 21.835938 56.949219 22.136719 C 55.445312 22.363281 53.867188 22.289062 52.214844 22.441406 Z M 54.769531 13.675781 C 54.769531 15.867188 54.769531 18.058594 54.769531 20.25 C 56.875 20.398438 57.925781 19.492188 58.074219 17.453125 C 58.074219 17.152344 58.074219 16.773438 58.074219 16.472656 C 57.851562 14.429688 56.875 13.601562 54.769531 13.675781 Z M 54.769531 13.675781 "/>
<path style=" stroke:none;fill-rule:nonzero;fill:rgb(100%,100%,100%);fill-opacity:1;" d="M 88.050781 11.710938 C 88.050781 15.261719 88.050781 18.738281 88.050781 22.289062 C 87.226562 22.289062 86.472656 22.289062 85.648438 22.289062 C 85.648438 20.851562 85.648438 19.417969 85.648438 17.980469 C 84.445312 17.980469 83.320312 17.980469 82.042969 17.980469 C 82.042969 19.417969 82.042969 20.851562 82.042969 22.289062 C 81.214844 22.289062 80.464844 22.289062 79.636719 22.289062 C 79.636719 18.738281 79.636719 15.261719 79.636719 11.710938 C 80.386719 11.710938 81.140625 11.710938 81.964844 11.710938 C 81.964844 12.84375 81.964844 13.902344 81.964844 15.035156 C 81.964844 15.640625 82.117188 15.792969 82.71875 15.792969 C 83.621094 15.714844 84.519531 15.792969 85.574219 15.792969 C 85.574219 14.429688 85.574219 13.070312 85.574219 11.710938 C 86.472656 11.710938 87.226562 11.710938 88.050781 11.710938 Z M 88.050781 11.710938 "/>
<path style=" stroke:none;fill-rule:nonzero;fill:rgb(100%,100%,100%);fill-opacity:1;" d="M 111.566406 11.710938 C 111.566406 13.070312 111.566406 14.429688 111.566406 15.941406 C 112.46875 14.65625 113.296875 13.601562 114.046875 12.464844 C 114.496094 11.785156 115.023438 11.484375 115.773438 11.558594 C 116.226562 11.636719 116.675781 11.558594 117.351562 11.558594 C 116.375 12.84375 115.550781 13.976562 114.648438 15.035156 C 114.121094 15.640625 114.195312 16.019531 114.574219 16.699219 C 115.550781 18.207031 116.449219 19.796875 117.351562 21.382812 C 117.503906 21.609375 117.578125 21.835938 117.804688 22.214844 C 116.976562 22.214844 116.226562 22.289062 115.472656 22.214844 C 115.25 22.214844 115.023438 21.910156 114.875 21.683594 C 114.121094 20.476562 113.445312 19.191406 112.695312 17.980469 C 110.964844 19.039062 111.492188 20.703125 111.417969 22.214844 C 110.589844 22.214844 109.839844 22.214844 109.011719 22.214844 C 109.011719 18.738281 109.011719 15.1875 109.011719 11.710938 C 109.988281 11.710938 110.742188 11.710938 111.566406 11.710938 Z M 111.566406 11.710938 "/>
<path style=" stroke:none;fill-rule:nonzero;fill:rgb(100%,100%,100%);fill-opacity:1;" d="M 98.644531 22.289062 C 98.417969 22.289062 98.34375 22.363281 98.195312 22.363281 C 96.164062 22.441406 96.164062 22.441406 95.566406 20.476562 C 95.414062 20.023438 95.265625 19.796875 94.8125 19.871094 C 93.988281 19.945312 93.160156 19.871094 92.257812 19.871094 C 92.109375 20.550781 91.882812 21.15625 91.734375 21.761719 C 91.65625 22.214844 91.433594 22.441406 90.980469 22.363281 C 90.378906 22.363281 89.855469 22.363281 89.179688 22.363281 C 89.253906 21.988281 89.328125 21.761719 89.402344 21.457031 C 90.378906 18.4375 91.28125 15.414062 92.257812 12.316406 C 92.410156 11.863281 92.632812 11.636719 93.160156 11.636719 C 95.414062 11.636719 95.414062 11.636719 96.015625 13.675781 C 96.765625 16.167969 97.59375 18.664062 98.34375 21.230469 C 98.496094 21.535156 98.570312 21.835938 98.644531 22.289062 Z M 94.964844 17.832031 C 94.589844 16.472656 94.289062 15.1875 93.988281 13.902344 C 93.910156 13.902344 93.910156 13.902344 93.835938 13.902344 C 93.535156 15.1875 93.234375 16.472656 92.859375 17.832031 C 93.613281 17.832031 94.210938 17.832031 94.964844 17.832031 Z M 94.964844 17.832031 "/>
<path style=" stroke:none;fill-rule:nonzero;fill:rgb(100%,100%,100%);fill-opacity:1;" d="M 121.558594 20.25 C 123.0625 20.25 124.414062 20.25 125.84375 20.25 C 125.84375 20.929688 125.84375 21.535156 125.84375 22.214844 C 123.589844 22.214844 121.410156 22.214844 119.082031 22.214844 C 119.082031 18.664062 119.082031 15.1875 119.082031 11.636719 C 121.257812 11.636719 123.4375 11.636719 125.691406 11.636719 C 125.691406 12.316406 125.691406 12.921875 125.691406 13.601562 C 124.339844 13.601562 122.988281 13.601562 121.558594 13.601562 C 121.558594 14.355469 121.558594 14.960938 121.558594 15.640625 C 122.6875 15.640625 123.8125 15.640625 125.089844 15.640625 C 125.089844 16.394531 125.089844 17 125.089844 17.679688 C 123.886719 17.679688 122.761719 17.679688 121.558594 17.679688 C 121.558594 18.664062 121.558594 19.417969 121.558594 20.25 Z M 121.558594 20.25 "/>
<path style=" stroke:none;fill-rule:nonzero;fill:rgb(100%,100%,100%);fill-opacity:1;" d="M 74.078125 11.710938 C 74.078125 12.390625 74.078125 12.996094 74.078125 13.675781 C 72.648438 13.675781 71.296875 13.675781 69.871094 13.675781 C 69.871094 14.429688 69.871094 15.035156 69.871094 15.792969 C 70.996094 15.792969 72.199219 15.792969 73.402344 15.792969 C 73.402344 16.472656 73.402344 17.152344 73.402344 17.832031 C 72.273438 17.832031 71.074219 17.832031 69.871094 17.832031 C 69.871094 18.664062 69.871094 19.417969 69.871094 20.25 C 71.296875 20.25 72.726562 20.25 74.152344 20.25 C 74.152344 21.003906 74.152344 21.609375 74.152344 22.289062 C 71.898438 22.289062 69.644531 22.289062 67.390625 22.289062 C 67.390625 18.738281 67.390625 15.261719 67.390625 11.710938 C 69.644531 11.710938 71.824219 11.710938 74.078125 11.710938 Z M 74.078125 11.710938 "/>
<path style=" stroke:none;fill-rule:nonzero;fill:rgb(100%,100%,100%);fill-opacity:1;" d="M 144.625 12.921875 C 144.25 13.375 143.875 13.828125 143.421875 14.355469 C 143.195312 14.203125 142.972656 14.054688 142.671875 13.976562 C 141.996094 13.828125 141.320312 13.675781 140.640625 13.675781 C 140.34375 13.675781 139.964844 14.054688 139.890625 14.355469 C 139.816406 14.582031 140.117188 15.035156 140.34375 15.1875 C 141.019531 15.5625 141.769531 15.792969 142.445312 16.09375 C 144.25 16.847656 145 17.832031 144.851562 19.417969 C 144.699219 20.851562 143.496094 21.988281 141.769531 22.363281 C 140.117188 22.667969 138.164062 22.0625 136.886719 20.851562 C 137.335938 20.324219 137.789062 19.796875 138.011719 19.492188 C 139.214844 19.796875 140.191406 20.097656 141.167969 20.25 C 141.695312 20.324219 142.296875 20.097656 142.21875 19.492188 C 142.21875 19.117188 141.84375 18.664062 141.46875 18.4375 C 140.867188 18.058594 140.191406 17.832031 139.515625 17.527344 C 137.863281 16.847656 137.113281 15.714844 137.261719 14.203125 C 137.410156 12.84375 138.539062 11.710938 140.191406 11.410156 C 141.917969 11.257812 143.648438 11.785156 144.625 12.921875 Z M 144.625 12.921875 "/>
<path style=" stroke:none;fill-rule:nonzero;fill:rgb(100%,100%,100%);fill-opacity:1;" d="M 106.15625 14.429688 C 105.859375 14.203125 105.632812 14.128906 105.40625 13.976562 C 104.355469 13.375 103.003906 13.601562 102.328125 14.65625 C 101.425781 15.941406 101.425781 18.207031 102.328125 19.570312 C 103.003906 20.476562 104.355469 20.703125 105.40625 20.097656 C 105.707031 19.945312 105.933594 19.71875 106.308594 19.492188 C 106.683594 19.945312 107.132812 20.476562 107.511719 20.929688 C 105.707031 23.421875 101.5 22.96875 99.921875 20.25 C 98.71875 18.207031 99.019531 15.035156 100.523438 13.222656 C 102.25 11.183594 105.40625 11.03125 107.359375 12.996094 C 106.984375 13.375 106.609375 13.828125 106.15625 14.429688 Z M 106.15625 14.429688 "/>
<path style=" stroke:none;fill-rule:nonzero;fill:rgb(100%,100%,100%);fill-opacity:1;" d="M 64.910156 22.289062 C 64.085938 22.289062 63.335938 22.289062 62.582031 22.289062 C 62.582031 18.738281 62.582031 15.261719 62.582031 11.710938 C 63.410156 11.710938 64.085938 11.710938 64.910156 11.710938 C 64.910156 15.1875 64.910156 18.738281 64.910156 22.289062 Z M 64.910156 22.289062 "/>
<path style=" stroke:none;fill-rule:nonzero;fill:rgb(100%,100%,100%);fill-opacity:1;" d="M 38.917969 11.710938 C 38.917969 15.261719 38.917969 18.738281 38.917969 22.289062 C 38.089844 22.289062 37.339844 22.289062 36.589844 22.289062 C 36.589844 18.738281 36.589844 15.261719 36.589844 11.710938 C 37.339844 11.710938 38.089844 11.710938 38.917969 11.710938 Z M 38.917969 11.710938 "/>
</g>
</svg>
