<?xml version="1.0" encoding="utf-8"?>
<!-- Generator: Adobe Illustrator 24.0.2, SVG Export Plug-In . SVG Version: 6.00 Build 0)  -->
<svg version="1.1" id="Layer_1" xmlns="http://www.w3.org/2000/svg" xmlns:xlink="http://www.w3.org/1999/xlink" x="0px" y="0px"
	 viewBox="0 0 193 29.4" style="enable-background:new 0 0 193 29.4;" xml:space="preserve">
<style type="text/css">
	.st0{fill:#FFFFFF;}
</style>
<title>medium</title>
<g id="Layer_2_1_">
	<g id="Layer_1-2">
		<g id="phDCLb.tif">
			<path class="st0" d="M14.4,29.4c-8,0-14.5-6.5-14.5-14.6S6.4,0.3,14.5,0.3c8,0,14.5,6.5,14.5,14.6c0,0,0,0,0,0
				C29,22.9,22.5,29.4,14.4,29.4C14.5,29.4,14.5,29.4,14.4,29.4z"/>
			<path class="st0" d="M62.6,5.6v19.9c0,0.2,0,0.4,0,0.6c0.1,1.1,0.9,1.9,2,2c0.2,0,0.3,0.1,0.2,0.4h-6c-0.1-0.2,0-0.3,0.2-0.4
				c0.1,0,0.2,0,0.3-0.1c1-0.2,1.8-1.1,1.7-2.2c0-0.1,0-0.3,0-0.4c0-7,0-14.1,0-21.2c0-0.3,0-0.6-0.1-0.9c-0.1-0.8-0.8-1.5-1.6-1.6
				c-0.1-0.1-0.3-0.1-0.4-0.1c-0.2,0-0.3-0.2-0.2-0.4h8.6c0.2,0,0.4,0.1,0.4,0.3l6.8,16l0.7,1.6l0.1-0.2l6.6-15.5
				c0.3-0.7,0.6-1.3,0.8-2c0-0.1,0.1-0.2,0.2-0.2h7.9h0.1c0.1,0.2,0,0.3-0.2,0.4c-1.2,0.1-2.1,1.3-2,2.5c0,0.1,0,0.2,0,0.3
				c0,7.1,0,14.2,0,21.3c0,0.2,0,0.4,0,0.6c0.1,0.8,0.6,1.4,1.3,1.7c0.2,0.1,0.5,0.2,0.7,0.2c0.2,0,0.2,0.2,0.2,0.4H80.8
				c-0.1-0.2,0-0.3,0.2-0.4c0.4-0.1,0.8-0.3,1.2-0.5c0.6-0.4,0.9-1,0.9-1.7V5l0,0c0,0.1-0.1,0.2-0.1,0.2l-2.5,5.8l-3.6,8.3
				c-1.3,2.9-2.5,5.9-3.8,8.9c-0.1,0.2-0.2,0.2-0.4,0.2c-0.2,0-0.3-0.1-0.4-0.2l-5.2-12.3c-1.4-3.3-2.9-6.7-4.3-10.1L62.6,5.6
				L62.6,5.6z"/>
			<path class="st0" d="M181.6,28.5h-7.6v-0.3c0-4.8,0-9.5,0-14.3c0-0.8-0.1-1.5-0.4-2.2c-0.7-1.2-2.1-1.6-3.3-0.9
				c-0.2,0.1-0.3,0.2-0.5,0.4c-0.2,0.3-0.5,0.6-0.6,0.9c-0.1,0.1-0.1,0.2-0.1,0.4V26c0,0.2,0,0.5,0.1,0.7c0.1,0.7,0.7,1.3,1.4,1.4
				c0.2,0,0.3,0.2,0.2,0.4h-7.6v-0.4c0-5,0-10,0-15c0-0.4,0-0.7-0.1-1.1c-0.1-0.8-0.7-1.5-1.5-1.6c-0.2,0-0.3,0-0.5-0.1
				c-0.1,0-0.2-0.1-0.2-0.2c-0.1-0.1,0.1-0.2,0.2-0.2l3.6-1l4.1-1l0.3-0.1v3.3c0.2-0.4,0.4-0.7,0.6-1.1c1.1-1.6,2.9-2.5,4.9-2.3
				c0.9,0,1.8,0.2,2.6,0.6c1.2,0.6,2.1,1.6,2.4,2.8l0.1,0.3c0.1-0.2,0.2-0.4,0.3-0.5c1-2.1,3.2-3.3,5.5-3.1c1,0,1.9,0.2,2.7,0.7
				c1.3,0.7,2.2,2.1,2.5,3.6c0.1,0.6,0.2,1.2,0.2,1.8c0,3.9,0,7.7,0,11.6c-0.2,1.2,0.6,2.4,1.9,2.6c0,0,0.1,0,0.1,0
				c0.3,0.1,0.3,0.1,0.2,0.4h-8.1v-0.4c0-4.7,0-9.5,0-14.2c0-0.6-0.1-1.2-0.2-1.8c-0.4-1.3-1.8-2-3-1.6c-0.4,0.1-0.7,0.3-1,0.6
				c-0.1,0.1-0.3,0.3-0.4,0.5c-0.3,0.4-0.4,0.8-0.3,1.3c0,0.2,0.1,0.5,0.1,0.7v12.2c0,0.3,0,0.5,0.1,0.8c0.1,0.7,0.7,1.3,1.4,1.4
				C181.6,28.2,181.7,28.3,181.6,28.5z"/>
			<path class="st0" d="M30.3,14.7c0-2.9,0.5-5.7,1.6-8.4c0.5-1.4,1.4-2.7,2.5-3.7c0.9-1,2.3-1.5,3.6-1.4c1.1,0.1,2.1,0.7,2.9,1.5
				c1.2,1.3,2.1,2.8,2.7,4.4c1,3,1.4,6.1,1.2,9.3c-0.1,2.3-0.6,4.6-1.5,6.8c-0.6,1.6-1.5,3-2.7,4.1c-1.1,1.1-2.7,1.5-4.2,1.1
				c-1.1-0.4-2.1-1.1-2.8-2c-1.2-1.6-2.1-3.3-2.5-5.2C30.6,19,30.3,16.8,30.3,14.7z"/>
			<path class="st0" d="M122.1,8.6c0-0.8,0-1.6,0-2.4c0-0.4,0-0.9,0-1.3c0.1-1-0.7-1.8-1.7-1.9c-0.4,0-0.9,0-1.3,0h-0.3
				c-0.1-0.2,0-0.3,0.2-0.4l8.7-2.6h0.2v25.4c0,0.3,0,0.6,0.1,0.9c0.1,0.8,0.7,1.4,1.4,1.6l0.8,0.2v0.3h-8.2v-2.9
				c-0.3,0.5-0.7,1.1-1.1,1.6c-1,1.2-2.4,1.9-4,2c-2.6,0.2-5.1-1.2-6.3-3.6c-1-1.8-1.4-3.8-1.4-5.8c-0.1-2,0.2-3.9,0.9-5.7
				c0.8-2.1,2.3-3.9,4.2-5c1.9-1.1,4.1-1.4,6.2-0.9C121.1,8.2,121.6,8.4,122.1,8.6z M122.1,17.5c0-2.2,0-4.4,0-6.6
				c0-0.4-0.2-0.8-0.4-1.1c-0.3-0.3-0.7-0.6-1.1-0.7c-1-0.3-2.1,0-2.8,0.8c-0.6,0.6-1,1.3-1.2,2.1c-0.4,1.2-0.7,2.5-0.8,3.8
				c-0.2,2-0.1,4,0.4,6c0.3,1.2,0.8,2.4,1.7,3.3c0.8,0.8,2,1,3,0.6c0.8-0.3,1.3-1,1.2-1.8L122.1,17.5z"/>
			<path class="st0" d="M139.6,10.5c-0.1-0.2,0-0.3,0.2-0.4c2.6-0.7,5.2-1.5,7.8-2.2l0.2-0.1v0.3c0,4.8,0,9.6,0,14.3
				c0,0.5,0.1,1,0.2,1.5c0.4,1.4,1.8,2.2,3.2,1.9c0.3-0.1,0.6-0.2,0.8-0.4c0.2-0.1,0.4-0.3,0.6-0.5c0.3-0.3,0.5-0.8,0.5-1.2
				c0-3.6,0-7.1,0-10.7c0-0.4,0-0.7-0.1-1.1c0-0.8-0.7-1.5-1.6-1.5c-0.1,0-0.2,0-0.2-0.2s0.1-0.2,0.2-0.3l7.3-2.1l0.3-0.1v17.3
				c0,0.4,0,0.7,0.1,1.1c0.1,0.8,0.6,1.5,1.4,1.7c0.2,0.1,0.4,0.1,0.6,0.2c0.2,0,0.3,0.1,0.2,0.4H153v-3.1c-0.3,0.5-0.5,0.9-0.8,1.3
				c-1.3,1.7-3.4,2.6-5.5,2.3c-0.9-0.1-1.8-0.4-2.5-0.9c-1-0.7-1.7-1.7-2-2.9c-0.2-0.9-0.3-1.7-0.3-2.6c0-3.1,0-6.3,0-9.4
				c0-0.3,0-0.7-0.1-1c-0.1-0.9-0.8-1.6-1.6-1.6L139.6,10.5z"/>
			<path class="st0" d="M108.3,16.7H95.9c0,0.5,0,0.9,0,1.3c0.1,1.6,0.7,3.1,1.7,4.3c1.1,1.5,2.9,2.4,4.8,2.3
				c1.4-0.1,2.8-0.7,3.8-1.8c0.5-0.6,1-1.2,1.3-1.9c0.1-0.1,0.1-0.2,0.3-0.1c0.1,0,0.2,0.1,0.2,0.2c0,0,0,0,0,0
				c-0.3,2.4-1.4,4.6-3.1,6.2c-1.1,0.9-2.4,1.5-3.9,1.7c-1.5,0.2-3,0.1-4.4-0.5c-1.7-0.7-3.1-1.9-4-3.5c-0.9-1.5-1.4-3.2-1.5-5
				c-0.2-2,0-4.1,0.7-6c0.6-2,2-3.7,3.8-4.9c1.7-1,3.7-1.4,5.7-1.1c1.4,0.2,2.7,0.7,3.8,1.5c1.5,1.2,2.5,2.9,2.8,4.7
				C108.1,15,108.2,15.8,108.3,16.7z M96,15.6h7c0-0.8,0-1.5-0.1-2.3c0-1-0.3-2-0.8-2.9c-0.7-1.2-2.3-1.7-3.6-1
				c-0.2,0.1-0.4,0.3-0.5,0.4c-0.4,0.4-0.8,1-1,1.5C96.4,12.7,96.1,14.1,96,15.6z"/>
			<path class="st0" d="M140.2,28.2v0.3h-8.2v-15c0-0.4,0-0.8-0.1-1.2c0-0.9-0.7-1.7-1.6-1.7l-0.4-0.1c-0.1,0-0.2,0-0.3-0.2
				s0.1-0.2,0.2-0.2l4.4-1.2l3.4-1l0.3-0.1v17.4c0,0.4,0,0.7,0.1,1.1c0.1,0.8,0.6,1.4,1.4,1.6C139.7,28.1,140,28.1,140.2,28.2z"/>
			<path class="st0" d="M51.3,14.3c0,3.1-0.2,6.2-0.8,9.2c-0.2,0.9-0.4,1.8-0.8,2.6c-0.1,0.2-0.3,0.4-0.4,0.6
				c-0.2,0.3-0.6,0.4-0.9,0.2c-0.1-0.1-0.1-0.1-0.2-0.2c-0.2-0.3-0.4-0.6-0.6-1c-0.4-1-0.7-2.1-0.8-3.1c-0.5-3.3-0.7-6.7-0.6-10
				c0.1-2.4,0.3-4.8,0.8-7.1c0.2-0.8,0.5-1.7,0.9-2.4c0.5-0.9,1.1-0.9,1.6,0c0.4,0.7,0.7,1.6,0.9,2.4c0.4,2,0.7,4,0.8,6
				C51.3,12.5,51.3,13.5,51.3,14.3z"/>
			<path class="st0" d="M138.1,3.5c0,1.8-1.4,3.2-3.1,3.2c0,0-0.1,0-0.1,0c-1.8,0-3.2-1.5-3.2-3.2s1.5-3.2,3.2-3.2
				c1.8,0,3.2,1.3,3.3,3.1C138.1,3.3,138.1,3.4,138.1,3.5z"/>
		</g>
	</g>
</g>
</svg>
