<?xml version="1.0" encoding="UTF-8"?>
<svg xmlns="http://www.w3.org/2000/svg" xmlns:xlink="http://www.w3.org/1999/xlink" width="146pt" height="22pt" viewBox="0 0 146 22" version="1.1">
<g id="surface1">
<path style=" stroke:none;fill-rule:nonzero;fill:rgb(100%,100%,100%);fill-opacity:1;" d="M 11.738281 22 C 5.769531 22 0.917969 17.136719 0.917969 11.074219 C 0.917969 5.011719 5.769531 0.222656 11.8125 0.222656 C 17.78125 0.222656 22.632812 5.089844 22.632812 11.148438 C 22.632812 17.136719 17.78125 22 11.738281 22 C 11.8125 22 11.8125 22 11.738281 22 Z M 11.738281 22 "/>
<path style=" stroke:none;fill-rule:nonzero;fill:rgb(100%,100%,100%);fill-opacity:1;" d="M 47.703125 4.191406 L 47.703125 19.082031 C 47.703125 19.230469 47.703125 19.382812 47.703125 19.53125 C 47.777344 20.355469 48.375 20.953125 49.195312 21.027344 C 49.347656 21.027344 49.421875 21.101562 49.347656 21.328125 L 44.867188 21.328125 C 44.792969 21.175781 44.867188 21.101562 45.019531 21.027344 C 45.09375 21.027344 45.167969 21.027344 45.242188 20.953125 C 45.988281 20.800781 46.585938 20.128906 46.511719 19.304688 C 46.511719 19.230469 46.511719 19.082031 46.511719 19.007812 C 46.511719 13.769531 46.511719 8.457031 46.511719 3.144531 C 46.511719 2.917969 46.511719 2.695312 46.4375 2.46875 C 46.359375 1.871094 45.839844 1.347656 45.242188 1.273438 C 45.167969 1.199219 45.019531 1.199219 44.945312 1.199219 C 44.792969 1.199219 44.71875 1.046875 44.792969 0.898438 L 51.210938 0.898438 C 51.359375 0.898438 51.511719 0.972656 51.511719 1.121094 L 56.582031 13.09375 L 57.105469 14.292969 L 57.179688 14.144531 L 62.105469 2.542969 C 62.328125 2.019531 62.554688 1.570312 62.703125 1.046875 C 62.703125 0.972656 62.777344 0.898438 62.851562 0.898438 L 68.820312 0.898438 C 68.894531 1.046875 68.820312 1.121094 68.671875 1.199219 C 67.777344 1.273438 67.105469 2.171875 67.179688 3.066406 C 67.179688 3.144531 67.179688 3.21875 67.179688 3.292969 C 67.179688 8.605469 67.179688 13.917969 67.179688 19.230469 C 67.179688 19.382812 67.179688 19.53125 67.179688 19.679688 C 67.253906 20.277344 67.628906 20.726562 68.148438 20.953125 C 68.300781 21.027344 68.523438 21.101562 68.671875 21.101562 C 68.820312 21.101562 68.820312 21.25 68.820312 21.402344 L 61.285156 21.402344 C 61.210938 21.25 61.285156 21.175781 61.433594 21.101562 C 61.734375 21.027344 62.03125 20.878906 62.328125 20.726562 C 62.777344 20.429688 63 19.980469 63 19.457031 L 63 3.742188 C 63 3.816406 62.925781 3.890625 62.925781 3.890625 L 61.0625 8.230469 L 58.375 14.441406 C 57.40625 16.613281 56.507812 18.855469 55.539062 21.101562 C 55.464844 21.25 55.390625 21.25 55.242188 21.25 C 55.089844 21.25 55.015625 21.175781 54.941406 21.101562 L 51.0625 11.898438 C 50.015625 9.429688 48.898438 6.882812 47.855469 4.339844 Z M 47.703125 4.191406 "/>
<path style=" stroke:none;fill-rule:nonzero;fill:rgb(100%,100%,100%);fill-opacity:1;" d="M 136.5 21.328125 L 130.828125 21.328125 L 130.828125 21.101562 C 130.828125 17.511719 130.828125 13.992188 130.828125 10.402344 C 130.828125 9.800781 130.753906 9.277344 130.53125 8.753906 C 130.007812 7.855469 128.964844 7.558594 128.070312 8.082031 C 127.917969 8.15625 127.84375 8.230469 127.695312 8.382812 C 127.546875 8.605469 127.320312 8.828125 127.246094 9.054688 C 127.171875 9.128906 127.171875 9.203125 127.171875 9.355469 L 127.171875 19.457031 C 127.171875 19.605469 127.171875 19.828125 127.246094 19.980469 C 127.320312 20.503906 127.769531 20.953125 128.292969 21.027344 C 128.441406 21.027344 128.515625 21.175781 128.441406 21.328125 L 122.769531 21.328125 L 122.769531 21.027344 C 122.769531 17.285156 122.769531 13.542969 122.769531 9.800781 C 122.769531 9.503906 122.769531 9.277344 122.695312 8.980469 C 122.621094 8.382812 122.171875 7.855469 121.578125 7.78125 C 121.425781 7.78125 121.351562 7.78125 121.203125 7.707031 C 121.128906 7.707031 121.054688 7.632812 121.054688 7.558594 C 120.980469 7.484375 121.128906 7.40625 121.203125 7.40625 L 123.890625 6.660156 L 126.949219 5.910156 L 127.171875 5.835938 L 127.171875 8.304688 C 127.320312 8.007812 127.472656 7.78125 127.621094 7.484375 C 128.441406 6.285156 129.785156 5.613281 131.277344 5.761719 C 131.949219 5.761719 132.621094 5.910156 133.21875 6.210938 C 134.113281 6.660156 134.785156 7.40625 135.007812 8.304688 L 135.082031 8.53125 C 135.15625 8.382812 135.230469 8.230469 135.304688 8.15625 C 136.050781 6.585938 137.695312 5.6875 139.410156 5.835938 C 140.15625 5.835938 140.828125 5.988281 141.425781 6.359375 C 142.394531 6.882812 143.066406 7.933594 143.289062 9.054688 C 143.363281 9.503906 143.441406 9.953125 143.441406 10.402344 C 143.441406 13.320312 143.441406 16.164062 143.441406 19.082031 C 143.289062 19.980469 143.886719 20.878906 144.859375 21.027344 C 144.859375 21.027344 144.933594 21.027344 144.933594 21.027344 C 145.15625 21.101562 145.15625 21.101562 145.082031 21.328125 L 139.039062 21.328125 L 139.039062 21.027344 C 139.039062 17.511719 139.039062 13.917969 139.039062 10.402344 C 139.039062 9.953125 138.960938 9.503906 138.886719 9.054688 C 138.589844 8.082031 137.546875 7.558594 136.648438 7.855469 C 136.351562 7.933594 136.128906 8.082031 135.902344 8.304688 C 135.828125 8.382812 135.679688 8.53125 135.605469 8.679688 C 135.382812 8.980469 135.304688 9.277344 135.382812 9.652344 C 135.382812 9.800781 135.457031 10.027344 135.457031 10.175781 L 135.457031 19.304688 C 135.457031 19.53125 135.457031 19.679688 135.53125 19.90625 C 135.605469 20.429688 136.050781 20.878906 136.574219 20.953125 C 136.5 21.101562 136.574219 21.175781 136.5 21.328125 Z M 136.5 21.328125 "/>
<path style=" stroke:none;fill-rule:nonzero;fill:rgb(100%,100%,100%);fill-opacity:1;" d="M 23.601562 11 C 23.601562 8.828125 23.976562 6.734375 24.796875 4.714844 C 25.167969 3.667969 25.839844 2.695312 26.660156 1.945312 C 27.332031 1.199219 28.378906 0.824219 29.347656 0.898438 C 30.167969 0.972656 30.914062 1.421875 31.511719 2.019531 C 32.40625 2.992188 33.078125 4.117188 33.527344 5.3125 C 34.273438 7.558594 34.570312 9.878906 34.421875 12.273438 C 34.347656 13.992188 33.972656 15.714844 33.304688 17.359375 C 32.855469 18.558594 32.183594 19.605469 31.289062 20.429688 C 30.46875 21.25 29.273438 21.550781 28.15625 21.25 C 27.332031 20.953125 26.585938 20.429688 26.066406 19.753906 C 25.167969 18.558594 24.496094 17.285156 24.199219 15.863281 C 23.828125 14.21875 23.601562 12.570312 23.601562 11 Z M 23.601562 11 "/>
<path style=" stroke:none;fill-rule:nonzero;fill:rgb(100%,100%,100%);fill-opacity:1;" d="M 92.101562 6.433594 C 92.101562 5.835938 92.101562 5.238281 92.101562 4.640625 C 92.101562 4.339844 92.101562 3.964844 92.101562 3.667969 C 92.175781 2.917969 91.578125 2.320312 90.832031 2.246094 C 90.535156 2.246094 90.164062 2.246094 89.863281 2.246094 L 89.640625 2.246094 C 89.566406 2.09375 89.640625 2.019531 89.789062 1.945312 L 96.28125 0 L 96.429688 0 L 96.429688 19.007812 C 96.429688 19.230469 96.429688 19.457031 96.503906 19.679688 C 96.578125 20.277344 97.027344 20.726562 97.550781 20.878906 L 98.144531 21.027344 L 98.144531 21.25 L 92.027344 21.25 L 92.027344 19.082031 C 91.804688 19.457031 91.503906 19.90625 91.207031 20.277344 C 90.460938 21.175781 89.417969 21.699219 88.222656 21.777344 C 86.28125 21.925781 84.417969 20.878906 83.519531 19.082031 C 82.773438 17.734375 82.476562 16.238281 82.476562 14.742188 C 82.402344 13.246094 82.625 11.824219 83.148438 10.476562 C 83.746094 8.90625 84.863281 7.558594 86.28125 6.734375 C 87.699219 5.910156 89.339844 5.6875 90.910156 6.0625 C 91.355469 6.136719 91.730469 6.285156 92.101562 6.433594 Z M 92.101562 13.09375 C 92.101562 11.449219 92.101562 9.800781 92.101562 8.15625 C 92.101562 7.855469 91.953125 7.558594 91.804688 7.332031 C 91.578125 7.109375 91.28125 6.882812 90.984375 6.808594 C 90.238281 6.585938 89.417969 6.808594 88.894531 7.40625 C 88.445312 7.855469 88.148438 8.382812 88 8.980469 C 87.699219 9.878906 87.476562 10.851562 87.402344 11.824219 C 87.253906 13.320312 87.328125 14.816406 87.699219 16.3125 C 87.921875 17.210938 88.296875 18.109375 88.96875 18.78125 C 89.566406 19.382812 90.460938 19.53125 91.207031 19.230469 C 91.804688 19.007812 92.175781 18.484375 92.101562 17.882812 Z M 92.101562 13.09375 "/>
<path style=" stroke:none;fill-rule:nonzero;fill:rgb(100%,100%,100%);fill-opacity:1;" d="M 105.160156 7.855469 C 105.085938 7.707031 105.160156 7.632812 105.308594 7.558594 C 107.25 7.035156 109.191406 6.433594 111.128906 5.910156 L 111.277344 5.835938 L 111.277344 6.0625 C 111.277344 9.652344 111.277344 13.246094 111.277344 16.761719 C 111.277344 17.136719 111.355469 17.511719 111.429688 17.882812 C 111.726562 18.933594 112.773438 19.53125 113.816406 19.304688 C 114.039062 19.230469 114.265625 19.15625 114.414062 19.007812 C 114.5625 18.933594 114.710938 18.78125 114.859375 18.632812 C 115.085938 18.40625 115.234375 18.035156 115.234375 17.734375 C 115.234375 15.039062 115.234375 12.421875 115.234375 9.726562 C 115.234375 9.429688 115.234375 9.203125 115.160156 8.90625 C 115.160156 8.304688 114.636719 7.78125 113.964844 7.78125 C 113.890625 7.78125 113.816406 7.78125 113.816406 7.632812 C 113.816406 7.484375 113.890625 7.484375 113.964844 7.40625 L 119.414062 5.835938 L 119.636719 5.761719 L 119.636719 18.707031 C 119.636719 19.007812 119.636719 19.230469 119.710938 19.53125 C 119.785156 20.128906 120.160156 20.652344 120.753906 20.800781 C 120.90625 20.878906 121.054688 20.878906 121.203125 20.953125 C 121.351562 20.953125 121.425781 21.027344 121.351562 21.25 L 115.160156 21.25 L 115.160156 18.933594 C 114.9375 19.304688 114.785156 19.605469 114.5625 19.90625 C 113.59375 21.175781 112.027344 21.851562 110.457031 21.625 C 109.785156 21.550781 109.117188 21.328125 108.59375 20.953125 C 107.847656 20.429688 107.324219 19.679688 107.101562 18.78125 C 106.953125 18.109375 106.875 17.511719 106.875 16.835938 C 106.875 14.515625 106.875 12.121094 106.875 9.800781 C 106.875 9.578125 106.875 9.277344 106.800781 9.054688 C 106.726562 8.382812 106.207031 7.855469 105.609375 7.855469 Z M 105.160156 7.855469 "/>
<path style=" stroke:none;fill-rule:nonzero;fill:rgb(100%,100%,100%);fill-opacity:1;" d="M 81.804688 12.496094 L 72.550781 12.496094 C 72.550781 12.871094 72.550781 13.171875 72.550781 13.46875 C 72.625 14.667969 73.074219 15.789062 73.820312 16.6875 C 74.640625 17.808594 75.984375 18.484375 77.402344 18.40625 C 78.445312 18.332031 79.492188 17.882812 80.238281 17.0625 C 80.609375 16.613281 80.984375 16.164062 81.207031 15.640625 C 81.28125 15.566406 81.28125 15.488281 81.433594 15.566406 C 81.507812 15.566406 81.582031 15.640625 81.582031 15.714844 C 81.355469 17.511719 80.535156 19.15625 79.269531 20.355469 C 78.445312 21.027344 77.476562 21.476562 76.359375 21.625 C 75.238281 21.777344 74.121094 21.699219 73.074219 21.25 C 71.804688 20.726562 70.761719 19.828125 70.089844 18.632812 C 69.417969 17.511719 69.046875 16.238281 68.96875 14.890625 C 68.820312 13.394531 68.96875 11.824219 69.492188 10.402344 C 69.941406 8.90625 70.984375 7.632812 72.328125 6.734375 C 73.597656 5.988281 75.089844 5.6875 76.582031 5.910156 C 77.625 6.0625 78.597656 6.433594 79.417969 7.035156 C 80.535156 7.933594 81.28125 9.203125 81.507812 10.550781 C 81.65625 11.222656 81.730469 11.824219 81.804688 12.496094 Z M 72.625 11.671875 L 77.851562 11.671875 C 77.851562 11.074219 77.851562 10.550781 77.777344 9.953125 C 77.777344 9.203125 77.550781 8.457031 77.179688 7.78125 C 76.65625 6.882812 75.460938 6.511719 74.492188 7.035156 C 74.34375 7.109375 74.195312 7.257812 74.121094 7.332031 C 73.820312 7.632812 73.523438 8.082031 73.375 8.457031 C 72.925781 9.503906 72.703125 10.550781 72.625 11.671875 Z M 72.625 11.671875 "/>
<path style=" stroke:none;fill-rule:nonzero;fill:rgb(100%,100%,100%);fill-opacity:1;" d="M 105.609375 21.101562 L 105.609375 21.328125 L 99.488281 21.328125 L 99.488281 10.101562 C 99.488281 9.800781 99.488281 9.503906 99.414062 9.203125 C 99.414062 8.53125 98.894531 7.933594 98.222656 7.933594 L 97.921875 7.855469 C 97.847656 7.855469 97.773438 7.855469 97.699219 7.707031 C 97.625 7.558594 97.773438 7.558594 97.847656 7.558594 L 101.132812 6.660156 L 103.667969 5.910156 L 103.890625 5.835938 L 103.890625 18.855469 C 103.890625 19.15625 103.890625 19.382812 103.964844 19.679688 C 104.042969 20.277344 104.414062 20.726562 105.011719 20.878906 C 105.234375 21.027344 105.460938 21.027344 105.609375 21.101562 Z M 105.609375 21.101562 "/>
<path style=" stroke:none;fill-rule:nonzero;fill:rgb(100%,100%,100%);fill-opacity:1;" d="M 39.273438 10.699219 C 39.273438 13.019531 39.125 15.339844 38.675781 17.585938 C 38.527344 18.257812 38.378906 18.933594 38.078125 19.53125 C 38.003906 19.679688 37.855469 19.828125 37.78125 19.980469 C 37.628906 20.203125 37.332031 20.277344 37.109375 20.128906 C 37.035156 20.054688 37.035156 20.054688 36.960938 19.980469 C 36.808594 19.753906 36.660156 19.53125 36.511719 19.230469 C 36.214844 18.484375 35.988281 17.660156 35.914062 16.910156 C 35.542969 14.441406 35.390625 11.898438 35.46875 9.429688 C 35.542969 7.632812 35.691406 5.835938 36.0625 4.117188 C 36.214844 3.515625 36.4375 2.84375 36.734375 2.320312 C 37.109375 1.644531 37.554688 1.644531 37.929688 2.320312 C 38.226562 2.84375 38.453125 3.515625 38.601562 4.117188 C 38.898438 5.613281 39.125 7.109375 39.199219 8.605469 C 39.273438 9.355469 39.273438 10.101562 39.273438 10.699219 Z M 39.273438 10.699219 "/>
<path style=" stroke:none;fill-rule:nonzero;fill:rgb(100%,100%,100%);fill-opacity:1;" d="M 104.042969 2.617188 C 104.042969 3.964844 102.996094 5.011719 101.726562 5.011719 C 101.726562 5.011719 101.652344 5.011719 101.652344 5.011719 C 100.308594 5.011719 99.265625 3.890625 99.265625 2.617188 C 99.265625 1.347656 100.386719 0.222656 101.652344 0.222656 C 102.996094 0.222656 104.042969 1.199219 104.117188 2.542969 C 104.042969 2.46875 104.042969 2.542969 104.042969 2.617188 Z M 104.042969 2.617188 "/>
</g>
</svg>
