<?xml version="1.0" encoding="utf-8"?>
<!-- Generator: Adobe Illustrator 24.0.2, SVG Export Plug-In . SVG Version: 6.00 Build 0)  -->
<svg version="1.1" id="Layer_1" xmlns="http://www.w3.org/2000/svg" xmlns:xlink="http://www.w3.org/1999/xlink" x="0px" y="0px"
	 viewBox="0 0 193 45" style="enable-background:new 0 0 193 45;" xml:space="preserve">
<style type="text/css">
	.st0{fill:#FFFFFF;}
</style>
<g id="GZ4nPO.tif">
	<g>
		<path class="st0" d="M36.6,0c0.7,0.2,1.5,0.4,2.1,0.9c1.3,1,2,2.3,2,3.9c0,4,0,7.9,0,11.9c0,2.4-1.8,4.4-4.1,4.7
			c-2.5,0.3-4.7-1.2-5.2-3.6c-0.1-0.4-0.1-0.8-0.1-1.1c0-3.9,0-7.8,0-11.8c0-2.4,1.6-4.3,4-4.7c0.1,0,0.1,0,0.2-0.1
			C35.8,0,36.2,0,36.6,0z"/>
		<path class="st0" d="M24.7,0c0.7,0.2,1.5,0.4,2.1,0.9c1.3,0.9,2,2.2,2,3.7c0,1.6,0,3.1,0,4.7c0,0,0,0.1,0,0.2c-0.1,0-0.2,0-0.2,0
			c-1.5,0-3,0-4.6,0c-2.7,0-4.7-2.2-4.7-4.9c0-2.2,1.7-4.1,3.9-4.5c0.1,0,0.2-0.1,0.3-0.1C23.9,0,24.3,0,24.7,0z"/>
		<path class="st0" d="M159,0.7c2.5,0,5.1,0,7.6,0c0,3.7,0,7.3,0,10.9s0,7.3,0,11.1c0.2-0.2,0.3-0.3,0.4-0.4
			c2.7-3.2,5.4-6.4,8.1-9.7c0.2-0.2,0.3-0.3,0.6-0.3c2.9,0,5.8,0,8.6,0c0.1,0,0.2,0,0.4,0c-3.6,4.2-7.1,8.3-10.7,12.4
			c3.8,4.4,7.7,8.9,11.6,13.4c-0.2,0-0.4,0-0.5,0c-2.9,0-5.9,0-8.8,0c-0.4,0-0.6-0.1-0.8-0.4c-2.8-3.5-5.7-7-8.5-10.5
			c-0.1-0.1-0.1-0.2-0.3-0.3c0,3.8,0,7.5,0,11.2c-2.6,0-5.1,0-7.6,0C159,25.7,159,13.2,159,0.7z"/>
		<path class="st0" d="M119.8,15.2c0-0.9,0-1.9,0-2.9c2.6,0,5.1,0,7.6,0c0,8.6,0,17.1,0,25.7c-2.5,0-5.1,0-7.6,0c0-0.9,0-1.9,0-2.9
			c-0.1,0-0.1,0-0.1,0c-1.2,1.7-2.9,2.7-4.9,3.1c-4.5,1-8.2-0.3-11.2-3.7c-2.6-2.9-3.6-6.4-3.4-10.3s1.7-7.2,4.7-9.8
			c3.5-3.1,8.8-3.6,12.7-1.3c0.8,0.5,1.6,1.1,2.1,1.9c0,0,0,0.1,0.1,0.1C119.7,15.3,119.8,15.3,119.8,15.2z M119.8,25.3
			c0-0.9,0-1.8,0-2.7c0-0.3-0.1-0.6-0.3-0.8c-1.4-1.9-3.2-2.8-5.6-2.9c-4.3-0.1-7.5,3.9-6.4,8c0.8,3.2,3.8,5.2,7.1,4.8
			c2-0.2,3.6-1.1,4.9-2.7c0.2-0.3,0.3-0.5,0.3-0.8C119.8,27.1,119.8,26.2,119.8,25.3z"/>
		<path class="st0" d="M149.8,28.4c2,1.1,4,2.2,6.1,3.4c-1.7,3.4-6.3,7.3-12.6,6.9c-6.7-0.5-11.7-5.6-12.5-11.7
			c-0.9-6.9,3.5-12.9,9.6-14.6c6.4-1.8,12.7,1.3,15.5,6.4c-2,1.1-4.1,2.2-6.1,3.4c-1.3-2.1-3.1-3.2-5.6-3.2c-1.8,0-3.3,0.6-4.6,1.9
			c-2.6,2.6-2.4,6.8,0.3,9.3C142.8,32.6,147.6,32.1,149.8,28.4z"/>
		<path class="st0" d="M66.7,30.3c1.4,1,3,1.7,4.6,2.2c1.7,0.4,3.5,0.7,5.3,0.4c0.7-0.1,1.3-0.3,1.8-0.7c1.1-0.9,1-2.2-0.2-2.9
			c-1-0.5-2.1-0.7-3.2-1c-1.8-0.4-3.5-0.7-5.2-1.5c-1.2-0.5-2.3-1.1-3.1-2.1c-1.3-1.6-1.7-3.4-1.4-5.4c0.5-3.4,2.6-5.5,5.7-6.7
			c1.9-0.8,3.9-0.9,5.9-0.8c2.4,0.1,4.7,0.6,6.8,1.8c0.5,0.3,1,0.6,1.5,1c0.1,0.1,0.2,0.2,0.1,0.3c-0.6,1.7-1.3,3.3-2,5
			c0,0,0,0-0.1,0.1c-0.3-0.1-0.5-0.3-0.8-0.4c-2.2-1.2-4.6-2.1-7.1-2.1c-0.6,0-1.2,0.1-1.8,0.3c-0.3,0.1-0.6,0.3-0.9,0.5
			c-0.9,0.7-0.9,1.9,0.1,2.5c0.6,0.4,1.4,0.7,2.1,0.9c1.8,0.6,3.6,1,5.4,1.6c0.8,0.3,1.7,0.7,2.4,1.1c2.9,1.7,4.1,4.6,3.3,7.8
			c-0.8,2.9-2.7,4.6-5.4,5.7c-1.7,0.6-3.4,0.8-5.2,0.8c-2.8-0.1-5.6-0.5-8.2-1.7c-0.9-0.4-1.7-0.9-2.5-1.4c-0.1-0.1-0.2-0.3-0.1-0.3
			C65.2,33.6,65.9,32,66.7,30.3L66.7,30.3z"/>
		<path class="st0" d="M97,0.7c0,12.5,0,25,0,37.5c-2.5,0-5.1,0-7.6,0c0-12.5,0-25,0-37.5C91.9,0.7,94.4,0.7,97,0.7z"/>
		<path class="st0" d="M18.1,21.3c-1.9,0-3.9,0-5.8,0c-2.3,0-4.2-1.5-4.7-3.7c-0.6-2.9,1.6-5.7,4.5-5.7c4,0,8.1,0,12.1,0
			c2.5,0,4.5,2.1,4.6,4.6c0.1,2.4-1.8,4.6-4.2,4.9c-0.3,0-0.6,0-0.8,0C21.9,21.3,20,21.3,18.1,21.3z"/>
		<path class="st0" d="M41.9,33.2c-1.9,0-3.9,0-5.8,0c-2.5,0-4.4-1.6-4.8-4.1c-0.4-2.6,1.7-5.3,4.4-5.3c4.2-0.1,8.3,0,12.5,0
			c2.2,0,4.2,1.9,4.4,4.1c0.2,2.5-1.3,4.7-3.6,5.2c-0.4,0.1-0.9,0.1-1.3,0.1C45.7,33.2,43.8,33.2,41.9,33.2z"/>
		<path class="st0" d="M28.8,34.4c0,2,0,3.9,0,5.9c0,2.7-2.2,4.8-4.9,4.7c-2.4-0.1-4.5-2.1-4.5-4.6c0-4,0-8.1,0-12.1
			c0-2.4,2-4.4,4.4-4.6c2.6-0.1,4.7,1.6,5,4.1c0,0.3,0.1,0.6,0.1,0.8C28.8,30.6,28.8,32.5,28.8,34.4z"/>
		<path class="st0" d="M43.1,21.3c0-1.7,0-3.5,0-5.2c0-0.2,0-0.4,0.1-0.6c0.5-2.3,2.7-3.9,5.1-3.7c2.4,0.3,4.3,2.3,4.2,4.7
			c0,2.4-1.8,4.5-4.2,4.7c-1.7,0.1-3.3,0-5,0.1C43.3,21.3,43.2,21.3,43.1,21.3z"/>
		<path class="st0" d="M31.3,35.6c0.1,0,0.2,0,0.2,0c1.5,0,3,0,4.6,0c2.4,0,4.4,1.9,4.6,4.3c0.2,2.3-1.2,4.4-3.4,5s-4.5-0.4-5.5-2.4
			c-0.3-0.6-0.5-1.3-0.5-2c0-1.5,0-3,0-4.5C31.2,35.7,31.3,35.7,31.3,35.6z"/>
		<path class="st0" d="M17,23.7c0,0.6,0,1.2,0,1.8c0,1,0,2,0,3c-0.1,2.3-1.8,4.3-4.1,4.6c-2.4,0.3-4.6-1.2-5.2-3.5
			c-0.8-2.9,1.4-5.9,4.5-5.9C13.7,23.7,15.3,23.7,17,23.7z"/>
	</g>
</g>
</svg>
