<?xml version="1.0" encoding="UTF-8"?>
<svg xmlns="http://www.w3.org/2000/svg" xmlns:xlink="http://www.w3.org/1999/xlink" width="145pt" height="34pt" viewBox="0 0 145 34" version="1.1">
<g id="surface1">
<path style=" stroke:none;fill-rule:nonzero;fill:rgb(100%,100%,100%);fill-opacity:1;" d="M 27.496094 0 C 28.023438 0.152344 28.625 0.300781 29.074219 0.679688 C 30.050781 1.4375 30.578125 2.417969 30.578125 3.625 C 30.578125 6.648438 30.578125 9.59375 30.578125 12.617188 C 30.578125 14.429688 29.226562 15.941406 27.496094 16.167969 C 25.621094 16.394531 23.964844 15.261719 23.589844 13.449219 C 23.515625 13.148438 23.515625 12.84375 23.515625 12.617188 C 23.515625 9.671875 23.515625 6.722656 23.515625 3.703125 C 23.515625 1.890625 24.71875 0.453125 26.519531 0.152344 C 26.597656 0.152344 26.597656 0.152344 26.671875 0.0742188 C 26.894531 0 27.195312 0 27.496094 0 Z M 27.496094 0 "/>
<path style=" stroke:none;fill-rule:nonzero;fill:rgb(100%,100%,100%);fill-opacity:1;" d="M 18.558594 0 C 19.082031 0.152344 19.683594 0.300781 20.132812 0.679688 C 21.113281 1.359375 21.636719 2.34375 21.636719 3.476562 C 21.636719 4.683594 21.636719 5.816406 21.636719 7.027344 C 21.636719 7.027344 21.636719 7.101562 21.636719 7.179688 C 21.5625 7.179688 21.488281 7.179688 21.488281 7.179688 C 20.359375 7.179688 19.234375 7.179688 18.03125 7.179688 C 16.003906 7.179688 14.5 5.515625 14.5 3.476562 C 14.5 1.8125 15.777344 0.378906 17.429688 0.0742188 C 17.503906 0.0742188 17.582031 0 17.65625 0 C 17.957031 0 18.257812 0 18.558594 0 Z M 18.558594 0 "/>
<path style=" stroke:none;fill-rule:nonzero;fill:rgb(100%,100%,100%);fill-opacity:1;" d="M 119.457031 0.527344 C 121.335938 0.527344 123.289062 0.527344 125.164062 0.527344 C 125.164062 3.324219 125.164062 6.042969 125.164062 8.765625 C 125.164062 11.484375 125.164062 14.28125 125.164062 17.152344 C 125.316406 17 125.390625 16.925781 125.464844 16.847656 C 127.496094 14.429688 129.523438 12.011719 131.550781 9.519531 C 131.703125 9.367188 131.777344 9.292969 132.003906 9.292969 C 134.179688 9.292969 136.359375 9.292969 138.464844 9.292969 C 138.539062 9.292969 138.613281 9.292969 138.765625 9.292969 C 136.058594 12.464844 133.429688 15.5625 130.726562 18.664062 C 133.582031 21.988281 136.511719 25.386719 139.441406 28.785156 C 139.289062 28.785156 139.140625 28.785156 139.066406 28.785156 C 136.886719 28.785156 134.632812 28.785156 132.453125 28.785156 C 132.152344 28.785156 132.003906 28.710938 131.851562 28.484375 C 129.75 25.839844 127.570312 23.195312 125.464844 20.550781 C 125.390625 20.476562 125.390625 20.398438 125.242188 20.324219 C 125.242188 23.195312 125.242188 25.992188 125.242188 28.785156 C 123.289062 28.785156 121.410156 28.785156 119.53125 28.785156 C 119.457031 19.417969 119.457031 9.972656 119.457031 0.527344 Z M 119.457031 0.527344 "/>
<path style=" stroke:none;fill-rule:nonzero;fill:rgb(100%,100%,100%);fill-opacity:1;" d="M 90.003906 11.484375 C 90.003906 10.804688 90.003906 10.050781 90.003906 9.292969 C 91.957031 9.292969 93.835938 9.292969 95.714844 9.292969 C 95.714844 15.792969 95.714844 22.214844 95.714844 28.710938 C 93.835938 28.710938 91.882812 28.710938 90.003906 28.710938 C 90.003906 28.03125 90.003906 27.277344 90.003906 26.519531 C 89.929688 26.519531 89.929688 26.519531 89.929688 26.519531 C 89.027344 27.804688 87.75 28.558594 86.25 28.863281 C 82.867188 29.617188 80.089844 28.636719 77.835938 26.066406 C 75.878906 23.875 75.128906 21.230469 75.28125 18.285156 C 75.429688 15.335938 76.558594 12.84375 78.8125 10.878906 C 81.441406 8.539062 85.421875 8.160156 88.351562 9.898438 C 88.953125 10.277344 89.554688 10.730469 89.929688 11.332031 C 89.929688 11.332031 89.929688 11.410156 90.003906 11.410156 C 89.929688 11.558594 90.003906 11.558594 90.003906 11.484375 Z M 90.003906 19.117188 C 90.003906 18.4375 90.003906 17.753906 90.003906 17.074219 C 90.003906 16.847656 89.929688 16.621094 89.78125 16.472656 C 88.726562 15.035156 87.375 14.355469 85.574219 14.28125 C 82.34375 14.203125 79.9375 17.226562 80.765625 20.324219 C 81.367188 22.742188 83.621094 24.253906 86.097656 23.949219 C 87.601562 23.800781 88.804688 23.121094 89.78125 21.910156 C 89.929688 21.683594 90.003906 21.535156 90.003906 21.308594 C 90.003906 20.476562 90.003906 19.796875 90.003906 19.117188 Z M 90.003906 19.117188 "/>
<path style=" stroke:none;fill-rule:nonzero;fill:rgb(100%,100%,100%);fill-opacity:1;" d="M 112.542969 21.457031 C 114.046875 22.289062 115.550781 23.121094 117.125 24.027344 C 115.851562 26.59375 112.394531 29.542969 107.660156 29.238281 C 102.625 28.863281 98.871094 25.007812 98.269531 20.398438 C 97.59375 15.1875 100.898438 10.652344 105.480469 9.367188 C 110.289062 8.007812 115.023438 10.351562 117.125 14.203125 C 115.625 15.035156 114.046875 15.867188 112.542969 16.773438 C 111.566406 15.1875 110.214844 14.355469 108.335938 14.355469 C 106.984375 14.355469 105.859375 14.808594 104.878906 15.792969 C 102.925781 17.753906 103.078125 20.929688 105.105469 22.816406 C 107.285156 24.632812 110.890625 24.253906 112.542969 21.457031 Z M 112.542969 21.457031 "/>
<path style=" stroke:none;fill-rule:nonzero;fill:rgb(100%,100%,100%);fill-opacity:1;" d="M 50.113281 22.894531 C 51.164062 23.648438 52.367188 24.179688 53.566406 24.554688 C 54.84375 24.859375 56.195312 25.085938 57.550781 24.859375 C 58.074219 24.78125 58.527344 24.632812 58.902344 24.328125 C 59.726562 23.648438 59.652344 22.667969 58.75 22.136719 C 58 21.761719 57.171875 21.609375 56.347656 21.382812 C 54.996094 21.078125 53.71875 20.851562 52.441406 20.25 C 51.539062 19.871094 50.710938 19.417969 50.113281 18.664062 C 49.132812 17.453125 48.835938 16.09375 49.058594 14.582031 C 49.433594 12.011719 51.011719 10.425781 53.34375 9.519531 C 54.769531 8.914062 56.273438 8.839844 57.773438 8.914062 C 59.578125 8.992188 61.304688 9.367188 62.882812 10.277344 C 63.257812 10.503906 63.632812 10.730469 64.011719 11.03125 C 64.085938 11.105469 64.160156 11.183594 64.085938 11.257812 C 63.632812 12.542969 63.109375 13.75 62.582031 15.035156 C 62.582031 15.035156 62.582031 15.035156 62.507812 15.109375 C 62.28125 15.035156 62.132812 14.882812 61.90625 14.808594 C 60.253906 13.902344 58.449219 13.222656 56.574219 13.222656 C 56.121094 13.222656 55.671875 13.296875 55.21875 13.449219 C 54.996094 13.523438 54.769531 13.675781 54.542969 13.828125 C 53.867188 14.355469 53.867188 15.261719 54.621094 15.714844 C 55.070312 16.019531 55.671875 16.246094 56.195312 16.394531 C 57.550781 16.847656 58.902344 17.152344 60.253906 17.605469 C 60.855469 17.832031 61.53125 18.132812 62.058594 18.4375 C 64.234375 19.71875 65.136719 21.910156 64.535156 24.328125 C 63.933594 26.519531 62.507812 27.804688 60.480469 28.636719 C 59.203125 29.089844 57.925781 29.238281 56.574219 29.238281 C 54.46875 29.164062 52.367188 28.863281 50.410156 27.957031 C 49.734375 27.652344 49.132812 27.277344 48.535156 26.898438 C 48.457031 26.820312 48.382812 26.671875 48.457031 26.671875 C 48.984375 25.386719 49.511719 24.179688 50.113281 22.894531 Z M 50.113281 22.894531 "/>
<path style=" stroke:none;fill-rule:nonzero;fill:rgb(100%,100%,100%);fill-opacity:1;" d="M 72.875 0.527344 C 72.875 9.972656 72.875 19.417969 72.875 28.863281 C 70.996094 28.863281 69.042969 28.863281 67.164062 28.863281 C 67.164062 19.417969 67.164062 9.972656 67.164062 0.527344 C 69.042969 0.527344 70.921875 0.527344 72.875 0.527344 Z M 72.875 0.527344 "/>
<path style=" stroke:none;fill-rule:nonzero;fill:rgb(100%,100%,100%);fill-opacity:1;" d="M 13.597656 16.09375 C 12.171875 16.09375 10.667969 16.09375 9.242188 16.09375 C 7.511719 16.09375 6.085938 14.960938 5.710938 13.296875 C 5.257812 11.105469 6.910156 8.992188 9.089844 8.992188 C 12.097656 8.992188 15.175781 8.992188 18.179688 8.992188 C 20.058594 8.992188 21.5625 10.578125 21.636719 12.464844 C 21.710938 14.28125 20.285156 15.941406 18.480469 16.167969 C 18.257812 16.167969 18.03125 16.167969 17.878906 16.167969 C 16.453125 16.09375 15.027344 16.09375 13.597656 16.09375 Z M 13.597656 16.09375 "/>
<path style=" stroke:none;fill-rule:nonzero;fill:rgb(100%,100%,100%);fill-opacity:1;" d="M 31.480469 25.085938 C 30.050781 25.085938 28.550781 25.085938 27.121094 25.085938 C 25.242188 25.085938 23.816406 23.875 23.515625 21.988281 C 23.214844 20.023438 24.792969 17.980469 26.820312 17.980469 C 29.976562 17.90625 33.058594 17.980469 36.210938 17.980469 C 37.867188 17.980469 39.367188 19.417969 39.519531 21.078125 C 39.667969 22.96875 38.542969 24.632812 36.8125 25.007812 C 36.511719 25.085938 36.136719 25.085938 35.835938 25.085938 C 34.335938 25.085938 32.90625 25.085938 31.480469 25.085938 Z M 31.480469 25.085938 "/>
<path style=" stroke:none;fill-rule:nonzero;fill:rgb(100%,100%,100%);fill-opacity:1;" d="M 21.636719 25.992188 C 21.636719 27.503906 21.636719 28.9375 21.636719 30.449219 C 21.636719 32.488281 19.984375 34.074219 17.957031 34 C 16.152344 33.925781 14.574219 32.414062 14.574219 30.523438 C 14.574219 27.503906 14.574219 24.40625 14.574219 21.382812 C 14.574219 19.570312 16.078125 18.058594 17.878906 17.90625 C 19.835938 17.832031 21.410156 19.117188 21.636719 21.003906 C 21.636719 21.230469 21.710938 21.457031 21.710938 21.609375 C 21.636719 23.121094 21.636719 24.554688 21.636719 25.992188 Z M 21.636719 25.992188 "/>
<path style=" stroke:none;fill-rule:nonzero;fill:rgb(100%,100%,100%);fill-opacity:1;" d="M 32.378906 16.09375 C 32.378906 14.808594 32.378906 13.449219 32.378906 12.164062 C 32.378906 12.011719 32.378906 11.863281 32.457031 11.710938 C 32.832031 9.972656 34.484375 8.765625 36.289062 8.914062 C 38.089844 9.140625 39.519531 10.652344 39.441406 12.464844 C 39.441406 14.28125 38.089844 15.867188 36.289062 16.019531 C 35.011719 16.09375 33.808594 16.019531 32.53125 16.09375 C 32.53125 16.09375 32.457031 16.09375 32.378906 16.09375 Z M 32.378906 16.09375 "/>
<path style=" stroke:none;fill-rule:nonzero;fill:rgb(100%,100%,100%);fill-opacity:1;" d="M 23.515625 26.898438 C 23.589844 26.898438 23.664062 26.898438 23.664062 26.898438 C 24.792969 26.898438 25.917969 26.898438 27.121094 26.898438 C 28.925781 26.898438 30.425781 28.332031 30.578125 30.148438 C 30.726562 31.882812 29.675781 33.472656 28.023438 33.925781 C 26.371094 34.378906 24.640625 33.621094 23.890625 32.109375 C 23.664062 31.65625 23.515625 31.128906 23.515625 30.601562 C 23.515625 29.464844 23.515625 28.332031 23.515625 27.199219 C 23.441406 26.972656 23.515625 26.972656 23.515625 26.898438 Z M 23.515625 26.898438 "/>
<path style=" stroke:none;fill-rule:nonzero;fill:rgb(100%,100%,100%);fill-opacity:1;" d="M 12.773438 17.90625 C 12.773438 18.359375 12.773438 18.8125 12.773438 19.265625 C 12.773438 20.023438 12.773438 20.777344 12.773438 21.535156 C 12.695312 23.269531 11.417969 24.78125 9.691406 25.007812 C 7.886719 25.234375 6.234375 24.101562 5.785156 22.363281 C 5.183594 20.171875 6.835938 17.90625 9.164062 17.90625 C 10.292969 17.90625 11.496094 17.90625 12.773438 17.90625 Z M 12.773438 17.90625 "/>
</g>
</svg>
