<?xml version="1.0" encoding="utf-8"?>
<!-- Generator: Adobe Illustrator 24.0.2, SVG Export Plug-In . SVG Version: 6.00 Build 0)  -->
<svg version="1.1" id="Layer_1" xmlns="http://www.w3.org/2000/svg" xmlns:xlink="http://www.w3.org/1999/xlink" x="0px" y="0px"
	 viewBox="0 0 193 45" style="enable-background:new 0 0 193 45;" xml:space="preserve">
<style type="text/css">
	.st0{fill:#FFFFFF;}
</style>
<g id="Q035dQ.tif">
	<g>
		<path class="st0" d="M27.2,8.8c0,2.7,0,5.4,0,8.1c0,0.3,0,0.6,0,1l0,0c-2.9,0-5.7,0-8.6,0c-0.3,0-0.5,0.1-0.5,0.5
			c0,0.2,0,0.3,0,0.5c0,5.4,0,10.8,0,16.2c0,0.3,0,0.5,0,0.8c-3,0-5.9,0-9,0c0-0.3,0-0.5,0-0.8c0-5.5,0-11,0-16.4
			c0-0.6-0.2-0.8-0.8-0.8c-2.5,0-5,0-7.5,0c-0.2,0-0.5,0-0.8,0c0-3,0-6,0-9C9.1,8.8,18.1,8.8,27.2,8.8z"/>
		<path class="st0" d="M54.4,8.8c0,3,0,5.9,0,9c-0.3,0-0.5,0-0.7,0c-5.5,0-11,0-16.6,0c-0.6,0-0.8-0.2-0.8-0.8c0-2.7,0-5.5,0.1-8.2
			C42.4,8.8,48.4,8.8,54.4,8.8z"/>
		<path class="st0" d="M193,31.4c-1.3,0-2.7,0-4.1,0c0-0.3,0-0.5,0-0.7c0-1.9,0-3.8,0-5.7c0-0.4,0-0.8-0.1-1.2
			c-0.1-0.7-0.6-1.1-1.3-1c-0.7,0-1.1,0.3-1.2,1.1c-0.1,0.3-0.1,0.7-0.1,1c0,1.9,0,3.9,0,5.8c0,0.2,0,0.5,0,0.7c-1.4,0-2.7,0-4.1,0
			c0-0.2,0-0.4,0-0.7c0-4.5,0-9,0-13.5c0-0.5,0.2-0.8,0.6-0.9c1.1-0.4,2.2-0.9,3.4-1.3c0,1.8,0,3.5,0,5.2c0.7-0.3,1.3-0.6,1.9-0.8
			c2.6-0.6,4.3,0.6,4.8,3.2c0,0.1,0.1,0.2,0.1,0.4C193,25.8,193,28.6,193,31.4z"/>
		<path class="st0" d="M27.1,17.9c3,0,6,0,9.1,0c0,0.3,0,0.6,0,0.8c0,2.5,0,5,0,7.5c0,0.6,0.2,0.8,0.8,0.8c5.5,0,11,0,16.5,0
			c0.3,0,0.5,0,0.8,0c0,3,0,5.9,0,8.9c-9,0-18,0-27.1,0c0-0.3,0-0.5,0-0.8c0-5.5,0-10.9,0-16.4C27.2,18.4,27.2,18.1,27.1,17.9
			C27.2,17.8,27.1,17.9,27.1,17.9z"/>
		<path class="st0" d="M129.2,20c-1.3,0.5-2.6,1-3.9,1.5c-0.2-0.5-0.4-0.9-0.7-1.3c-0.9-1.5-3.1-1.5-3.9,0.1c-1,2.1-1,4.3,0,6.3
			c0.7,1.4,2.6,1.6,3.7,0.4c0.4-0.4,0.7-0.9,1.1-1.5c1.1,0.6,2.2,1.2,3.3,1.8c0.1,0.1,0.2,0.1,0.3,0.2c-1.2,2.5-3.3,3.9-6.1,4
			c-4.1,0.2-7-2.2-7.6-6.3c-0.3-2.1-0.2-4.3,0.8-6.2c1-2,2.5-3.2,4.7-3.6c1.3-0.3,2.7-0.2,4,0.1C127.3,16.2,128.5,17.8,129.2,20z"/>
		<path class="st0" d="M112.8,31.3c-1.3,0-2.6,0-3.9,0c0-0.3,0-0.5,0-0.8c0-1.8,0-3.6,0-5.3c0-0.4,0-0.9-0.1-1.3
			c-0.1-0.8-0.5-1.2-1.3-1.2s-1.2,0.3-1.4,1.1c-0.1,0.3-0.1,0.7-0.1,1c0,2.1,0,4.3,0,6.5c-1.3,0-2.6,0-4,0c0-0.2,0-0.4,0-0.6
			c0-4.5,0-9,0-13.5c0-0.5,0.1-0.7,0.6-0.8c1.1-0.4,2.2-0.9,3.4-1.3c0,1.8,0,3.5,0,5.2c0.8-0.3,1.6-0.6,2.4-0.8
			c2.3-0.4,3.9,0.8,4.3,3.1c0.1,0.6,0.1,1.2,0.1,1.7c0,2.1,0,4.3,0,6.4C112.9,30.9,112.8,31.1,112.8,31.3z"/>
		<path class="st0" d="M149,19.6c1.4,0,2.7,0,4.1,0c0,3.9,0,7.8,0,11.8c-1.3,0-2.6,0-4,0c0-0.2-0.1-0.4-0.1-0.6
			c-0.6,0.2-1.1,0.6-1.7,0.7c-2.7,0.7-4.8-0.7-5-3.5c-0.2-2.4-0.1-4.9-0.1-7.3c0-0.4,0-0.7,0-1.1c1.4,0,2.7,0,4.1,0
			c0,0.2,0,0.4,0,0.7c0,1.9,0,3.8,0,5.7c0,0.4,0,0.8,0.1,1.2c0.1,0.8,0.5,1.1,1.2,1.1c0.8,0,1.2-0.3,1.3-1.1
			c0.1-0.4,0.1-0.9,0.1-1.3C149,23.7,149,21.7,149,19.6z"/>
		<path class="st0" d="M160.2,31.4c-1.4,0-2.7,0-4,0c0-3.9,0-7.9,0-11.8c1.3,0,2.6,0,4,0c0,0.2,0.1,0.4,0.1,0.5
			c0.8-0.3,1.5-0.6,2.2-0.8c2.3-0.4,4,0.8,4.4,3.1c0.1,0.3,0.1,0.6,0.1,0.9c0,2.7,0,5.3,0,8c-1.3,0-2.7,0-4.1,0c0-0.2,0-0.4,0-0.7
			c0-1.9,0-3.9,0-5.8c0-0.3,0-0.7-0.1-1c-0.1-0.8-0.5-1.1-1.3-1.1s-1.2,0.3-1.3,1.1c-0.1,0.3-0.1,0.7-0.1,1c0,1.9,0,3.9,0,5.8
			C160.2,30.9,160.2,31.1,160.2,31.4z"/>
		<path class="st0" d="M68.2,19.4c-1.5,0-3,0-4.4,0c0-1.2,0-2.4,0-3.7c0.2,0,0.4-0.1,0.7-0.1c3.9,0,7.9,0,11.8,0
			c0.6,0,0.7,0.2,0.7,0.7c0,1,0,2,0,3c-1.3,0-2.5,0-3.7,0c-0.7,0-0.8,0.2-0.8,0.8c0,3.4,0,6.9,0,10.3c0,0.3,0,0.5,0,0.8
			c-1.4,0-2.8,0-4.3,0C68.2,27.4,68.2,23.4,68.2,19.4z"/>
		<path class="st0" d="M87.3,26.6c-2.5,0-4.8,0-7,0c0,1.2,0.7,2,1.8,1.9c0.9,0,1.7-0.3,2.6-0.5c0.2,0,0.4-0.2,0.7-0.3
			c0.5,0.8,1,1.6,1.5,2.5c-0.9,0.6-1.8,1-2.9,1.1s-2.3,0.2-3.4,0c-2.3-0.4-3.5-2.1-3.9-4.3c-0.3-1.3-0.2-2.7,0.2-4
			c0.7-2.4,2.7-3.8,5.2-3.8c2.6,0.1,4.3,1.5,4.8,4C87.2,24.3,87.2,25.4,87.3,26.6z M80.3,24.1c1.1,0,2.2,0,3.3,0
			c-0.1-1.2-0.7-1.9-1.7-1.8C80.9,22.3,80.4,22.9,80.3,24.1z"/>
		<path class="st0" d="M179.7,28.8c-1.3,2.3-3.3,3.2-6,2.7c-2.3-0.4-3.8-1.9-4.2-4.4c-0.3-1.8-0.3-3.5,0.6-5.2
			c1.1-2,2.9-2.7,5.1-2.7c2,0,3.4,1,4.4,2.7c-0.9,0.7-1.8,1.4-2.8,2.1c-0.2-0.3-0.4-0.6-0.7-0.9c-0.8-1-2.1-0.8-2.5,0.4
			c-0.4,1.2-0.4,2.4-0.1,3.5c0.4,1.3,1.7,1.6,2.6,0.7c0.3-0.3,0.6-0.6,0.9-1C178,27.5,178.9,28.1,179.7,28.8z"/>
		<path class="st0" d="M99.4,22c-0.9,0.7-1.8,1.3-2.7,2c-0.2-0.3-0.4-0.6-0.6-0.8c-0.4-0.5-0.9-0.7-1.5-0.7c-0.6,0.1-0.9,0.5-1.1,1
			c-0.4,1.2-0.4,2.4,0,3.6s1.6,1.6,2.6,0.7c0.3-0.3,0.6-0.7,1-1c0.4,0.3,0.8,0.6,1.2,0.9c0.4,0.3,0.8,0.6,1.2,0.9
			c-0.9,2-3.1,3.1-5.4,2.8c-2.9-0.4-4.6-2.2-4.8-5.2c0-1,0-2,0.2-3c0.6-3,3.1-4.2,5.9-4C97.4,19.5,98.6,20.4,99.4,22z"/>
		<path class="st0" d="M139.3,23.9c-0.3-0.2-0.5-0.4-0.8-0.6c-1.4-0.9-2.7-0.2-2.7,1.4c0,2,0,3.9,0,5.9c0,0.2,0,0.5,0,0.7
			c-1.4,0-2.7,0-4,0c0-3.9,0-7.8,0-11.8c1.3,0,2.6,0,4,0c0,0.2,0.1,0.4,0.1,0.6c0.6-0.3,1.3-0.7,1.9-0.8c0.7-0.1,1.4,0.1,2.1,0.2
			c0.1,0,0.3,0.3,0.3,0.5C139.9,21.3,139.6,22.6,139.3,23.9z"/>
	</g>
</g>
</svg>
